<?xml version="1.0" encoding="utf-8"?>
<!-- Generator: Adobe Illustrator 17.0.0, SVG Export Plug-In . SVG Version: 6.00 Build 0)  -->
<!DOCTYPE svg PUBLIC "-//W3C//DTD SVG 1.1//EN" "http://www.w3.org/Graphics/SVG/1.1/DTD/svg11.dtd">
<svg version="1.1" xmlns="http://www.w3.org/2000/svg" xmlns:xlink="http://www.w3.org/1999/xlink" x="0px" y="0px" width="500px"
	 height="500px" viewBox="0 0 500 500" style="enable-background:new 0 0 500 500;" xml:space="preserve">
<g id="Background_Complete">
</g>
<g id="Background_Simple">
</g>
<g id="Shadow">
</g>
<g id="Mechanisms">
</g>
<g id="Character">
	<g>
		<g>
			<g id="background-complete--inject-1">
				<g>
					<rect y="382.4" style="fill:#EBEBEB;" width="500" height="0.25"/>
					<rect x="150.04" y="388.78" style="fill:#EBEBEB;" width="23.18" height="0.25"/>
					<rect x="402.1" y="394.14" style="fill:#EBEBEB;" width="56.67" height="0.25"/>
					<rect x="42.72" y="394.14" style="fill:#EBEBEB;" width="56.67" height="0.25"/>
					<path style="fill:#EBEBEB;" d="M237,337.8H43.91c-3.15-0.01-5.7-2.56-5.7-5.71V60.66c0.03-3.13,2.57-5.65,5.7-5.66H237
						c3.15,0,5.71,2.56,5.71,5.71l0,0v271.38C242.71,335.24,240.15,337.8,237,337.8z M43.91,55.2c-3.01,0.01-5.45,2.45-5.45,5.46
						v271.43c0,3.01,2.44,5.45,5.45,5.46H237c3.01-0.01,5.45-2.45,5.46-5.46V60.66c-0.01-3.01-2.45-5.45-5.46-5.46H43.91z"/>
					<path style="fill:#EBEBEB;" d="M453.31,337.8h-193.1c-3.15-0.01-5.7-2.56-5.71-5.71V60.66c0.03-3.13,2.58-5.65,5.71-5.66h193.1
						c3.13,0.01,5.66,2.53,5.69,5.66v271.43C459,335.24,456.46,337.79,453.31,337.8z M260.21,55.2c-3.01,0.01-5.45,2.45-5.46,5.46
						v271.43c0.01,3.01,2.45,5.45,5.46,5.46h193.1c3.01-0.01,5.45-2.45,5.46-5.46V60.66c-0.01-3.01-2.45-5.45-5.46-5.46H260.21z"/>
				</g>
				<rect x="429.04" y="413.31" style="fill:#EBEBEB;" width="21.6" height="0.25"/>
				<g>
					<path style="fill:#E6E6E6;" d="M468.14,293.29c-2.09-5.99-18.59,2.16-25.23,12.09c-4.45,6.61-7.17,13.68-8.43,23.16
						c0.15-10.84,0.33-22.46,0.49-33.42c1.36-2.73,4.44-9.05,6.66-14.04c7.4-16.68,25.01-22.88,31.08-33.42
						c7.97-13.8,7.92-34.49,1.14-41.96c-5.89-6.49-25.42,37.39-27.62,42.29c-7.56,16.87-9.76,29.38-11.17,41.5
						c0.15-10.31,0.31-19.76,0.44-27.1c0.41-23.81,0.93-31.47,1.16-33.83c0.82-1.15,1.78-2.49,2.32-3.21
						c4.72-6.08,15.21-13.32,20.44-22.16c7.65-12.91,6.41-28.36,1.05-34.07c-5.61-6.02-15.53,8.2-20.79,22.29
						c-5.26,14.09-3.02,27.57-4.49,39.27c-0.31,2.32-0.63,11.01-0.93,23.1c-1.6-13.01-4.78-21.72-10.67-29.85
						c-7.26-9.99-13.51-22.15-19.49-20.58c-5.98,1.57-2.76,17.66,1.97,28.96c4.21,10.07,24.97,20.1,28.03,28.18
						c-0.36,16.39-0.68,37.17-0.91,56.48c-1.63-9.98-0.51-10.84-7.22-26.11c-3.99-9.09-20.34-20.3-22.29-14.05
						c-1.92,6.13,1.01,18.04,7.19,26.33c4.98,6.67,16.03,6.66,18.59,10.8c0.6,0.97,2.56,4.65,3.69,6.79
						c-0.27,23.6-0.39,44.43-0.26,51.53l1.07,0.07c-0.05-1.83,0.09-13.83,0.29-29.72c2.68-8.45,20.75-13.38,26.33-22.17
						C466.45,311.22,470.64,300.49,468.14,293.29z"/>
					<path style="fill:#E6E6E6;" d="M451.15,382.94h-34.66c-1.88-0.01-3.5-1.34-3.87-3.19l-2.46-12.13h47.39l-2.46,12.13
						C454.71,381.62,453.06,382.96,451.15,382.94z"/>
					<path style="fill:#F0F0F0;" d="M458.51,372.31h-49.38c-1.19,0.01-2.19-0.88-2.32-2.06l-1.01-8.97
						c-0.15-1.27,0.77-2.43,2.04-2.57c0.09-0.01,0.19-0.02,0.28-0.01h51.4c1.28-0.01,2.33,1.03,2.34,2.31c0,0.09,0,0.19-0.01,0.28
						l-1.02,8.95C460.7,371.42,459.7,372.32,458.51,372.31z"/>
				</g>
				<g>
					<rect x="52.91" y="89.01" style="fill:#E6E6E6;" width="69.8" height="76.64"/>
					<rect x="53.84" y="89.01" style="fill:#F5F5F5;" width="74.84" height="76.64"/>
					<rect x="58.61" y="93.78" style="fill:#FFFFFF;" width="65.3" height="67.09"/>
					<path style="fill:#F5F5F5;" d="M81.48,151.19L81.48,151.19c-7.78-7.77-7.78-20.38-0.01-28.16c0,0,0.01-0.01,0.01-0.01
						l19.55-19.55l0,0c7.77,7.78,7.77,20.39,0,28.17L81.48,151.19z"/>
				</g>
				<g>
					<rect x="53.94" y="206.06" style="fill:#E6E6E6;" width="47.51" height="53.62"/>
					<rect x="55.1" y="206.06" style="fill:#F5F5F5;" width="53.22" height="53.62"/>
					<rect x="60.6" y="211.55" style="fill:#FFFFFF;" width="42.24" height="42.65"/>
					<path style="fill:#F5F5F5;" d="M90.37,236.69l-4.84,4.84c-2.11,2.11-5.53,2.11-7.64,0l-4.84-4.84c-2.11-2.11-2.11-5.53,0-7.64
						l4.84-4.84c2.11-2.11,5.53-2.11,7.64,0l4.84,4.84C92.47,231.16,92.47,234.58,90.37,236.69z"/>
				</g>
			</g>
			<g>
				<rect x="184.21" y="273.04" style="fill:#E6E6E6;" width="21.65" height="109.21"/>
				<rect x="90.8" y="273.05" style="fill:#F0F0F0;" width="93.41" height="109.21"/>
				<rect x="99.31" y="315.06" style="fill:#E6E6E6;" width="76.39" height="25.17"/>
				<rect x="99.31" y="345.85" style="fill:#E6E6E6;" width="76.39" height="25.17"/>
				<path style="fill:#F0F0F0;" d="M128.92,318.44h17.15c1.16,0,2.1-0.95,2.11-2.11l0,0c0-1.17-0.94-2.11-2.11-2.12h-17.15
					c-1.17,0-2.11,0.95-2.11,2.12l0,0C126.82,317.49,127.76,318.43,128.92,318.44z"/>
				<rect x="99.31" y="284.28" style="fill:#E6E6E6;" width="76.39" height="25.17"/>
				<path style="fill:#F0F0F0;" d="M128.92,287.65h17.15c1.17,0,2.11-0.95,2.11-2.12l0,0c0-1.16-0.95-2.1-2.11-2.11h-17.15
					c-1.16,0-2.1,0.95-2.11,2.11l0,0C126.82,286.7,127.76,287.65,128.92,287.65z"/>
				<path style="fill:#F0F0F0;" d="M128.92,349.23h17.15c1.17,0,2.11-0.95,2.11-2.12l0,0c0-1.16-0.95-2.1-2.11-2.11h-17.15
					c-1.16,0-2.1,0.95-2.11,2.11l0,0C126.82,348.28,127.76,349.23,128.92,349.23z"/>
				<rect x="87.91" y="267.3" style="fill:#E6E6E6;" width="96.3" height="5.74"/>
				<rect x="184.21" y="267.31" style="fill:#E0E0E0;" width="24.67" height="5.74"/>
			</g>
		</g>
		<g>
			<path style="fill:#407BFF;" d="M250.42,165.53c36.39-22.67,63.63-66.23,112.11-64.93c36.41,0.97,57.6,30.25,65.55,64.16
				c20.9,89.04-91.07,167.04-168.78,184.17c-80.47,17.74-196.45-8.42-189.66-102.99c2.8-38.98,32.31-61.67,72.77-71.29
				C176.78,166.47,221.91,183.29,250.42,165.53z"/>
			<path style="opacity:0.9;fill:#FFFFFF;enable-background:new    ;" d="M250.42,165.53c36.39-22.67,63.63-66.23,112.11-64.93
				c36.41,0.97,57.6,30.25,65.55,64.16c20.9,89.04-91.07,167.04-168.78,184.17c-80.47,17.74-196.45-8.42-189.66-102.99
				c2.8-38.98,32.31-61.67,72.77-71.29C176.78,166.47,221.91,183.29,250.42,165.53z"/>
		</g>
		<ellipse style="fill:#F5F5F5;" cx="256" cy="432.82" rx="175.17" ry="13.82"/>
		<g>
			<g>
				<path style="fill:#407BFF;" d="M397.64,128.83c-1.44-4.77-3.35-9.39-5.7-13.79l0,0l3.55-11.63l-22.94-22.94l-11.64,3.57l0,0
					c-4.38-2.38-9-4.29-13.78-5.71l0,0l-5.7-10.73h-32.48l-5.71,10.73c-4.78,1.43-9.39,3.34-13.78,5.71l0,0l-11.63-3.57
					l-22.97,22.97l3.55,11.63l0,0c-2.36,4.39-4.27,9.01-5.7,13.79l-10.74,5.7v32.48l10.73,5.71l0,0c1.43,4.77,3.34,9.39,5.7,13.78
					l0,0l-3.55,11.61l22.97,22.97l11.63-3.55c4.39,2.36,9.01,4.27,13.79,5.69l5.71,10.74h32.48l5.7-10.73l0,0
					c4.77-1.43,9.39-3.35,13.78-5.71l11.64,3.55l22.97-22.97l-3.55-11.63l0,0c2.34-4.39,4.24-9.01,5.68-13.78l0,0l10.73-5.71v-32.48
					L397.64,128.83z M325.18,209.66c-32.52,0-58.89-26.37-58.89-58.89c0-32.52,26.37-58.89,58.89-58.89s58.89,26.37,58.89,58.89
					C384.08,183.29,357.71,209.66,325.18,209.66L325.18,209.66z"/>
				<path style="fill:#407BFF;" d="M325.18,100.14c-27.97,0.01-50.64,22.69-50.63,50.66s22.69,50.64,50.66,50.63
					c27.96-0.01,50.63-22.68,50.63-50.64C375.81,122.82,353.14,100.16,325.18,100.14z M325.18,194.68
					c-24.24,0.01-43.9-19.64-43.91-43.89c-0.01-24.24,19.64-43.9,43.89-43.91c24.24-0.01,43.9,19.64,43.91,43.89c0,0,0,0.01,0,0.01
					C369.04,175.01,349.41,194.65,325.18,194.68z"/>
				<path style="opacity:0.4;fill:#FFFFFF;" d="M397.64,128.83c-1.44-4.77-3.35-9.39-5.7-13.79l0,0l3.55-11.63l-22.94-22.94
					l-11.64,3.57l0,0c-4.38-2.38-9-4.29-13.78-5.71l0,0l-5.7-10.73h-32.48l-5.71,10.73c-4.78,1.43-9.39,3.34-13.78,5.71l0,0
					l-11.63-3.57l-22.97,22.97l3.55,11.63l0,0c-2.36,4.39-4.27,9.01-5.7,13.79l-10.74,5.7v32.48l10.73,5.71l0,0
					c1.43,4.77,3.34,9.39,5.7,13.78l0,0l-3.55,11.61l22.97,22.97l11.63-3.55c4.39,2.36,9.01,4.27,13.79,5.69l5.71,10.74h32.48
					l5.7-10.73l0,0c4.77-1.43,9.39-3.35,13.78-5.71l11.64,3.55l22.97-22.97l-3.55-11.63l0,0c2.34-4.39,4.24-9.01,5.68-13.78l0,0
					l10.73-5.71v-32.48L397.64,128.83z M325.18,209.66c-32.52,0-58.89-26.37-58.89-58.89c0-32.52,26.37-58.89,58.89-58.89
					s58.89,26.37,58.89,58.89C384.08,183.29,357.71,209.66,325.18,209.66L325.18,209.66z"/>
				<path style="opacity:0.4;fill:#FFFFFF;" d="M325.18,100.14c-27.97,0.01-50.64,22.69-50.63,50.66s22.69,50.64,50.66,50.63
					c27.96-0.01,50.63-22.68,50.63-50.64C375.81,122.82,353.14,100.16,325.18,100.14z M325.18,194.68
					c-24.24,0.01-43.9-19.64-43.91-43.89c-0.01-24.24,19.64-43.9,43.89-43.91c24.24-0.01,43.9,19.64,43.91,43.89c0,0,0,0.01,0,0.01
					C369.04,175.01,349.41,194.65,325.18,194.68z"/>
			</g>
			<g>
				<path style="fill:#263238;" d="M193.32,193.12c-0.77-2.53-1.78-4.98-3.03-7.31l1.88-6.17l-12.18-12.19l-6.17,1.88
					c-2.33-1.25-4.78-2.27-7.31-3.03l-3.03-5.65h-17.24l-3.02,5.65c-2.53,0.76-4.98,1.78-7.31,3.03l-6.17-1.88l-12.19,12.19
					l1.88,6.17c-1.24,2.33-2.26,4.78-3.02,7.31l-5.7,3.03v17.24l5.7,3.02c0.77,2.53,1.78,4.98,3.02,7.31l-1.88,6.17l12.19,12.19
					l6.17-1.88c2.33,1.25,4.78,2.26,7.31,3.02l3.02,5.65h17.24l3.03-5.65c2.53-0.77,4.98-1.78,7.31-3.02l6.17,1.88l12.19-12.19
					l-1.88-6.17c1.25-2.33,2.27-4.78,3.03-7.31l5.7-3.02v-17.24L193.32,193.12z M154.86,229.25c-13.52,0-24.49-10.96-24.49-24.49
					s10.96-24.49,24.49-24.49c13.52,0,24.49,10.96,24.49,24.49S168.39,229.25,154.86,229.25L154.86,229.25z"/>
				<g>
					<path style="fill:#407BFF;" d="M193.32,193.12c-0.77-2.53-1.78-4.98-3.03-7.31l1.88-6.17l-12.18-12.19l-6.17,1.88
						c-2.33-1.25-4.78-2.27-7.31-3.03l-3.03-5.65h-17.24l-3.02,5.65c-2.53,0.76-4.98,1.78-7.31,3.03l-6.17-1.88l-12.19,12.19
						l1.88,6.17c-1.24,2.33-2.26,4.78-3.02,7.31l-5.7,3.03v17.24l5.7,3.02c0.77,2.53,1.78,4.98,3.02,7.31l-1.88,6.17l12.19,12.19
						l6.17-1.88c2.33,1.25,4.78,2.26,7.31,3.02l3.02,5.65h17.24l3.03-5.65c2.53-0.77,4.98-1.78,7.31-3.02l6.17,1.88l12.19-12.19
						l-1.88-6.17c1.25-2.33,2.27-4.78,3.03-7.31l5.7-3.02v-17.24L193.32,193.12z M154.86,229.25c-13.52,0-24.49-10.96-24.49-24.49
						s10.96-24.49,24.49-24.49c13.52,0,24.49,10.96,24.49,24.49S168.39,229.25,154.86,229.25L154.86,229.25z"/>
					<path style="fill:#263238;" d="M154.86,196.65c-4.48,0-8.12,3.63-8.12,8.12c0,4.48,3.63,8.12,8.12,8.12s8.12-3.63,8.12-8.12
						l0,0C162.98,200.29,159.35,196.65,154.86,196.65z"/>
					<path style="opacity:0.4;fill:#FFFFFF;" d="M193.32,193.12c-0.77-2.53-1.78-4.98-3.03-7.31l1.88-6.17l-12.18-12.19l-6.17,1.88
						c-2.33-1.25-4.78-2.27-7.31-3.03l-3.03-5.65h-17.24l-3.02,5.65c-2.53,0.76-4.98,1.78-7.31,3.03l-6.17-1.88l-12.19,12.19
						l1.88,6.17c-1.24,2.33-2.26,4.78-3.02,7.31l-5.7,3.03v17.24l5.7,3.02c0.77,2.53,1.78,4.98,3.02,7.31l-1.88,6.17l12.19,12.19
						l6.17-1.88c2.33,1.25,4.78,2.26,7.31,3.02l3.02,5.65h17.24l3.03-5.65c2.53-0.77,4.98-1.78,7.31-3.02l6.17,1.88l12.19-12.19
						l-1.88-6.17c1.25-2.33,2.27-4.78,3.03-7.31l5.7-3.02v-17.24L193.32,193.12z M154.86,229.25c-13.52,0-24.49-10.96-24.49-24.49
						s10.96-24.49,24.49-24.49c13.52,0,24.49,10.96,24.49,24.49S168.39,229.25,154.86,229.25L154.86,229.25z"/>
					<path style="opacity:0.2;fill:#FFFFFF;" d="M154.86,196.65c-4.48,0-8.12,3.63-8.12,8.12c0,4.48,3.63,8.12,8.12,8.12
						s8.12-3.63,8.12-8.12l0,0C162.98,200.29,159.35,196.65,154.86,196.65z"/>
				</g>
			</g>
			<g>
				<path style="fill:#263238;" d="M209.04,177.49l-6.59-2.72l-0.24-2.48c-0.62-0.52-1.19-1.09-1.71-1.7l-2.47-0.24l-2.72-6.59
					l1.58-1.88c-0.07-0.81-0.07-1.62,0-2.43l-1.58-1.88l2.72-6.59l2.47-0.24c0.53-0.61,1.1-1.19,1.71-1.71l0.24-2.47l6.59-2.72
					l1.88,1.58c0.81-0.07,1.62-0.07,2.43,0l1.88-1.58l6.59,2.72l0.24,2.47c0.61,0.53,1.19,1.1,1.71,1.71l2.47,0.24l2.72,6.59
					l-1.58,1.88c0.07,0.81,0.07,1.62,0,2.43l1.58,1.88l-2.72,6.59l-2.47,0.24c-0.52,0.62-1.1,1.19-1.71,1.71l-0.24,2.47l-6.59,2.72
					l-1.88-1.58c-0.81,0.07-1.62,0.07-2.42,0L209.04,177.49z M213.82,174.45l1.71,1.41l5-2.07l0.21-2.2l0.24-0.19
					c0.7-0.57,1.35-1.2,1.93-1.88l0.18-0.24l2.21-0.21l2.07-5l-1.41-1.71v-0.29c0.09-0.91,0.09-1.82,0-2.73v-0.29l1.41-1.71l-2.07-5
					l-2.2-0.21l-0.19-0.24c-0.58-0.69-1.23-1.32-1.93-1.88l-0.24-0.19l-0.21-2.2l-5-2.07l-1.71,1.41h-0.29
					c-0.91-0.09-1.82-0.09-2.73,0h-0.29l-1.71-1.41l-5,2.07l-0.21,2.2l-0.23,0.19c-0.71,0.56-1.36,1.19-1.94,1.88l-0.19,0.24
					l-2.2,0.21l-2.09,4.96l1.41,1.71v0.29c-0.09,0.91-0.09,1.82,0,2.73v0.29l-1.41,1.71l2.07,5l2.2,0.21l0.19,0.23
					c0.58,0.71,1.22,1.35,1.93,1.93l0.24,0.19l0.21,2.21l5,2.07l1.71-1.41h0.29c0.91,0.09,1.82,0.09,2.73,0L213.82,174.45z"/>
				<path style="fill:#263238;" d="M215.09,167.72c-3.91,1.62-8.39-0.24-10-4.14c-1.62-3.91,0.24-8.39,4.14-10
					c3.91-1.62,8.39,0.24,10,4.14c0,0,0,0,0,0c1.62,3.9-0.23,8.38-4.13,10C215.1,167.72,215.1,167.72,215.09,167.72z"/>
			</g>
			<g>
				<path style="fill:#407BFF;" d="M160.04,161.86c-0.26,0-0.47-0.21-0.47-0.47v-2.35c0-0.26,0.21-0.47,0.47-0.47
					c0.26,0,0.47,0.21,0.47,0.47v2.35C160.51,161.65,160.3,161.86,160.04,161.86z"/>
				<path style="fill:#407BFF;" d="M160.04,154.79c-0.26,0-0.47-0.21-0.47-0.47v-4.72c0-0.26,0.21-0.47,0.47-0.47
					c0.26,0,0.47,0.21,0.47,0.47v4.72C160.51,154.58,160.3,154.79,160.04,154.79z M160.04,145.35c-0.26,0-0.47-0.21-0.47-0.47v-4.72
					c0-0.26,0.21-0.47,0.47-0.47c0.26,0,0.47,0.21,0.47,0.47v4.72C160.51,145.14,160.3,145.35,160.04,145.35z M160.04,135.92
					c-0.26,0-0.47-0.21-0.47-0.47v-4.72c0-0.26,0.21-0.47,0.47-0.47c0.26,0,0.47,0.21,0.47,0.47v4.72
					C160.51,135.7,160.3,135.92,160.04,135.92z M160.04,126.45c-0.26,0-0.47-0.18-0.47-0.44v-0.07c0-1.62,0.27-3.21,0.79-4.72
					c0.09-0.25,0.36-0.37,0.6-0.29c0.25,0.09,0.38,0.35,0.29,0.6c-0.49,1.41-0.74,2.9-0.74,4.41
					C160.51,126.2,160.3,126.45,160.04,126.45z M163.08,117.74c-0.1,0-0.21-0.03-0.29-0.1c-0.2-0.16-0.24-0.46-0.07-0.66
					c1.02-1.28,2.24-2.36,3.62-3.23c0.22-0.14,0.51-0.07,0.65,0.15c0.14,0.22,0.07,0.51-0.15,0.65c-1.29,0.81-2.43,1.82-3.39,3.02
					C163.35,117.67,163.22,117.74,163.08,117.74z M170.93,112.83c-0.22,0-0.41-0.15-0.46-0.37c-0.06-0.25,0.1-0.51,0.36-0.56
					c1.02-0.23,2.07-0.34,3.13-0.34h1.67c0.26,0,0.47,0.21,0.47,0.47s-0.21,0.47-0.47,0.47h-1.67c-0.99,0-1.97,0.11-2.92,0.32
					C171,112.83,170.96,112.83,170.93,112.83z M251.12,112.5h-4.72c-0.26,0-0.47-0.21-0.47-0.47s0.21-0.47,0.47-0.47h4.72
					c0.26,0,0.47,0.21,0.47,0.47S251.38,112.5,251.12,112.5z M241.68,112.5h-4.72c-0.26,0-0.47-0.21-0.47-0.47s0.21-0.47,0.47-0.47
					h4.72c0.26,0,0.47,0.21,0.47,0.47S241.94,112.5,241.68,112.5z M232.25,112.5h-4.72c-0.26,0-0.47-0.21-0.47-0.47
					s0.21-0.47,0.47-0.47h4.72c0.26,0,0.47,0.21,0.47,0.47S232.51,112.5,232.25,112.5z M222.81,112.5h-4.72
					c-0.26,0-0.47-0.21-0.47-0.47s0.21-0.47,0.47-0.47h4.72c0.26,0,0.47,0.21,0.47,0.47S223.07,112.5,222.81,112.5z M213.37,112.5
					h-4.72c-0.26,0-0.47-0.21-0.47-0.47s0.21-0.47,0.47-0.47h4.72c0.26,0,0.47,0.21,0.47,0.47S213.63,112.5,213.37,112.5z
					 M203.93,112.5h-4.72c-0.26,0-0.47-0.21-0.47-0.47s0.21-0.47,0.47-0.47h4.72c0.26,0,0.47,0.21,0.47,0.47
					S204.19,112.5,203.93,112.5z M194.5,112.5h-4.72c-0.26,0-0.47-0.21-0.47-0.47s0.21-0.47,0.47-0.47h4.72
					c0.26,0,0.47,0.21,0.47,0.47S194.76,112.5,194.5,112.5z M185.06,112.5h-4.72c-0.26,0-0.47-0.21-0.47-0.47s0.21-0.47,0.47-0.47
					h4.72c0.26,0,0.47,0.21,0.47,0.47S185.32,112.5,185.06,112.5z"/>
				<path style="fill:#407BFF;" d="M258.21,112.5h-2.35c-0.26,0-0.47-0.21-0.47-0.47s0.21-0.47,0.47-0.47h2.35
					c0.26,0,0.47,0.21,0.47,0.47S258.47,112.5,258.21,112.5z"/>
			</g>
		</g>
		<g>
			<rect x="159.75" y="277.69" style="fill:#263238;" width="4.93" height="154.07"/>
			<g>
				<g>
					<path style="fill:#407BFF;" d="M281.46,346.81h81.42c2.05,0,3.71-1.66,3.71-3.71v-3.87c0-2.05-1.66-3.71-3.71-3.71h-81.42
						V346.81z"/>
					<g>
						
							<line style="fill:none;stroke:#407BFF;stroke-width:2.8255;stroke-linecap:round;stroke-linejoin:round;stroke-miterlimit:10;" x1="359.74" y1="432.62" x2="353.84" y2="339.37"/>
						
							<line style="fill:none;stroke:#407BFF;stroke-width:2.8255;stroke-linecap:round;stroke-linejoin:round;stroke-miterlimit:10;" x1="337.15" y1="437.24" x2="331.25" y2="343.99"/>
						
							<line style="fill:none;stroke:#407BFF;stroke-width:2.8255;stroke-linecap:round;stroke-linejoin:round;stroke-miterlimit:10;" x1="277.94" y1="432.62" x2="283.84" y2="339.37"/>
						
							<line style="fill:none;stroke:#407BFF;stroke-width:2.8255;stroke-linecap:round;stroke-linejoin:round;stroke-miterlimit:10;" x1="300.53" y1="437.24" x2="306.43" y2="343.99"/>
					</g>
					<g>
						<path style="fill:#407BFF;" d="M288.68,339.37h81.42c2.05,0,3.71-1.66,3.71-3.71v-3.87c0-2.05-1.66-3.71-3.71-3.71h-81.42
							V339.37z"/>
						<path style="opacity:0.2;" d="M288.68,339.37h81.42c2.05,0,3.71-1.66,3.71-3.71v-3.87c0-2.05-1.66-3.71-3.71-3.71h-81.42
							V339.37z"/>
					</g>
				</g>
				<rect x="288.1" y="281.37" style="fill:#263238;" width="4.93" height="154.07"/>
				<g>
					<g>
						<g>
							<path style="fill:#263238;" d="M304.9,293.1c0,0-56.35,2.12-65.71,24.74c0,0,1.3,67.36,8.84,89.47l16.13-1.82l-2.58-65.51
								l58.29-46.88H304.9z"/>
							<path style="opacity:0.2;" d="M304.9,293.1c0,0-56.35,2.12-65.71,24.74c0,0,1.3,67.36,8.84,89.47l16.13-1.82l-2.58-65.51
								l58.29-46.88H304.9z"/>
						</g>
						<g>
							<g>
								<polygon style="fill:#B55B52;" points="261.48,422.35 251.42,422.35 251.29,415.64 251.18,410.39 261.02,410.98 
									261.21,415.64 								"/>
								<polygon style="opacity:0.2;" points="261.21,415.64 251.29,415.64 251.18,410.39 261.02,410.98 								"/>
							</g>
							<polygon style="fill:#407BFF;" points="265.99,412.52 244.43,413.17 240.5,405.17 265.39,404.94 							"/>
							<g>
								<path style="fill:none;stroke:#407BFF;stroke-width:0.9418;stroke-miterlimit:10;" d="M248.84,423.87
									c0,0,0.51-5.91-1.54-5.09C245.23,419.61,247.54,422.62,248.84,423.87z"/>
								<path style="fill:none;stroke:#407BFF;stroke-width:0.9418;stroke-miterlimit:10;" d="M248.84,423.87
									c0,0-4.43-3.09-5.56-1.52C242.16,423.93,248.84,423.87,248.84,423.87z"/>
							</g>
							<path style="fill:#263238;" d="M252.35,420.99l7.96,0.08c1.16,0.01,2.13,0.92,2.22,2.09l0.56,7.08
								c0.1,1.31-0.93,2.41-2.23,2.37c-4.33-0.13-13.24-0.36-16.4-0.27c-4.23,0.12-10.24,0.19-11.1-1.42
								c-0.86-1.6,0.51-2.66,0.51-2.66s11.52-1.07,16.83-6.55C251.14,421.27,251.72,420.98,252.35,420.99z"/>
						</g>
					</g>
					<path style="fill:#263238;" d="M355.46,293.1c0,0,1.06,13.13,0.66,23.28c-0.46,11.7-25.65,22.01-62.32,16.03
						c0,0-2.86,19.77-13,37.97c-10.14,18.21-26.01,45.26-26.01,45.26l-15.61-10.14c0,0,20.55-56.96,24.45-72.83
						c3.9-15.87,5.46-23.41,16.65-28.35c11.18-4.94,35.63-11.22,35.63-11.22H355.46z"/>
					<g>
						<g>
							<polygon style="fill:#B55B52;" points="248.84,412.66 246.99,415.5 242.92,421.77 235.11,417.22 239.2,410.86 240.79,408.4 
															"/>
							<polygon style="opacity:0.2;" points="248.84,412.66 246.99,415.5 239.2,410.86 240.79,408.4 							"/>
						</g>
						<polygon style="fill:#407BFF;" points="258.87,410.39 238.42,398.14 235.11,406.31 254.52,417.52 						"/>
						<g>
							<path style="fill:none;stroke:#407BFF;stroke-width:0.9418;stroke-miterlimit:10;" d="M229.76,417.52
								c0,0,1.49-5.12-0.19-5.21C227.9,412.21,229.76,417.52,229.76,417.52z"/>
							<path style="fill:none;stroke:#407BFF;stroke-width:0.9418;stroke-miterlimit:10;" d="M229.37,417.33c0,0-2.3-5.56-4.16-4.32
								C223.34,414.26,229.37,417.33,229.37,417.33z"/>
						</g>
						<path style="fill:#263238;" d="M236.12,416.66l6.82,4.03c0.99,0.59,1.37,1.84,0.85,2.87l-3.1,6.27
							c-0.57,1.16-2.02,1.58-3.12,0.9c-3.67-2.26-11.24-6.88-14.01-8.37c-3.71-2-8.93-4.93-8.85-6.71c0.07-1.79,1.79-2,1.79-2
							s10.48,4.82,17.83,2.82C234.93,416.3,235.58,416.34,236.12,416.66z"/>
					</g>
				</g>
				<g>
					<path style="fill:#B55B52;" d="M292.16,235.72c0,0-2.1,22.94-1.25,28.84c0,0-21.92,3.2-33.06,1.69l-7.42-1.86l-9.28,2.26
						l2.53,7.35h7.42c0,0,5.4,1.52,7.76,0c0,0,18.55,3.71,29.51,2.53c10.96-1.18,14.36-5.35,14.84-13.66
						c0.47-7.99,5.74-25.82,1.52-29.87L292.16,235.72z"/>
					<path style="fill:#407BFF;" d="M367.44,238.3c0,0-8.41-21.36-16.59-26.18c-8.18-4.83-46.05,4.41-46.05,4.41
						s-16.25,5.23-17.19,30.62l14.93,6.33l2.36,39.63h50.56l-0.27-51.33L367.44,238.3z"/>
					<path style="fill:#263238;" d="M305.48,174.66c0,0-5.01-0.62-6.36-4.38c-1.36-3.76,3.86-1.86,3.42-8.64
						c-0.44-6.78,7.35-8.41,13.01-5.42c5.66,2.98,14.61-0.27,18,3.8c3.39,4.07,1.9,7.86,1.9,7.86s9.72,10.99-2.6,18.51
						C320.54,193.91,305.48,174.66,305.48,174.66z"/>
					<path style="fill:#B55B52;" d="M334.88,211.21c-5.4,8.23-10.26,9.08-16.78,9.07c-7.3-0.03-4.86-5.2-4.86-5.2
						c3.06-1.53,5.29-3.17,5.64-6.94c0.07-0.76,0.09-1.5,0.05-2.2c-0.12-2.8-0.87-4.98-0.87-4.98c-10.35,0.94-14-4.12-15.3-13.64
						c-1.29-9.53,3.06-17.05,3.06-17.05c6,7.06,17.29,1.53,17.29,1.53c-3.17,9.18,4.59,12.47,4.59,12.47
						c3.05-1.88,5.4-0.24,5.17,3.41c-0.24,3.65-3.41,4.59-3.41,4.59C328.89,208.5,334.88,211.21,334.88,211.21z"/>
					<g>
						<path style="fill:#263238;" d="M308.69,191.06c-0.17,0-0.31-0.13-0.32-0.3c-0.01-0.18,0.13-0.33,0.3-0.34
							c3.61-0.2,5.03-1.93,5.04-1.95c0.11-0.14,0.31-0.16,0.45-0.05c0.14,0.11,0.16,0.31,0.06,0.45c-0.06,0.08-1.58,1.98-5.51,2.19
							C308.7,191.06,308.7,191.06,308.69,191.06z"/>
					</g>
					<path style="fill:#A02724;" d="M308.69,187.12l-0.59-6.07l-2.62,5.52C305.48,186.57,306.86,187.81,308.69,187.12z"/>
					<ellipse style="fill:#263238;" cx="313.52" cy="181.05" rx="0.79" ry="1.38"/>
					<ellipse style="fill:#263238;" cx="304.69" cy="181.05" rx="0.79" ry="1.38"/>
					<g>
						<path style="fill:#263238;" d="M317.97,177.96c-0.13,0-0.26-0.06-0.35-0.18c-0.05-0.08-1.36-1.84-4.4-1.28
							c-0.23,0.04-0.45-0.11-0.5-0.34c-0.04-0.23,0.11-0.45,0.34-0.5c3.6-0.66,5.19,1.53,5.25,1.62c0.14,0.19,0.09,0.46-0.1,0.59
							C318.14,177.93,318.05,177.96,317.97,177.96z"/>
					</g>
					<g>
						<path style="fill:#263238;" d="M303.35,177.44c-0.07,0-0.13-0.01-0.19-0.05c-0.21-0.11-0.29-0.36-0.19-0.57
							c0.95-1.87,3.24-1.59,3.33-1.57c0.23,0.03,0.4,0.24,0.37,0.48c-0.03,0.23-0.25,0.4-0.48,0.37c-0.07-0.01-1.78-0.21-2.46,1.11
							C303.65,177.35,303.5,177.44,303.35,177.44z"/>
					</g>
					<g>
						<path style="fill:#FFFFFF;" d="M302.67,185.78c-2.61,0-4.73-2.12-4.73-4.73c0-2.61,2.12-4.73,4.73-4.73
							c2.61,0,4.73,2.12,4.73,4.73C307.41,183.66,305.28,185.78,302.67,185.78z M302.67,176.95c-2.26,0-4.09,1.84-4.09,4.1
							c0,2.26,1.84,4.09,4.09,4.09c2.26,0,4.1-1.84,4.1-4.09C306.77,178.79,304.93,176.95,302.67,176.95z"/>
					</g>
					<g>
						<path style="fill:#FFFFFF;" d="M313.97,185.78c-2.61,0-4.73-2.12-4.73-4.73c0-2.61,2.12-4.73,4.73-4.73
							c2.61,0,4.73,2.12,4.73,4.73C318.7,183.66,316.58,185.78,313.97,185.78z M313.97,176.95c-2.26,0-4.09,1.84-4.09,4.1
							c0,2.26,1.84,4.09,4.09,4.09c2.26,0,4.1-1.84,4.1-4.09C318.06,178.79,316.23,176.95,313.97,176.95z"/>
					</g>
					
						<line style="fill:none;stroke:#FFFFFF;stroke-width:0.9418;stroke-miterlimit:10;" x1="307.41" y1="181.05" x2="309.23" y2="181.05"/>
					
						<line style="fill:none;stroke:#FFFFFF;stroke-width:0.9418;stroke-linecap:round;stroke-linejoin:round;stroke-miterlimit:10;" x1="318.39" y1="181.92" x2="327.26" y2="184.05"/>
					<path style="opacity:0.2;" d="M321.5,200.04c0,0-0.92,3.5-2.56,5.91c-0.12-2.8-0.87-4.98-0.87-4.98L321.5,200.04z"/>
					<polygon style="opacity:0.2;" points="302.54,253.47 302.54,247.14 299.98,252.39 					"/>
					<polygon style="opacity:0.2;" points="344.27,245.02 342.32,233.63 341.77,246.02 					"/>
					<path style="fill:#B55B52;" d="M358.22,268.92c-0.13,8.33-3.88,12.48-14.84,13.66c-10.96,1.18-29.51-2.53-29.51-2.53
						c-2.36,1.53-7.76,0-7.76,0h-7.42l-2.52-7.34l9.27-2.27l7.42,1.86c11.13,1.52,33.05-1.69,33.05-1.69
						c-0.63-4.42-1.34-18.85-1.64-25.59l13.08-3.87C358.64,249.95,358.33,261.74,358.22,268.92z"/>
				</g>
				<g>
					<path style="fill:#407BFF;" d="M164.77,225.42l8.86,45.11c0.4,2.02,2.17,3.47,4.22,3.47h74.93c2.68,0,4.71-2.42,4.24-5.06
						l-8.04-45.11c-0.37-2.05-2.15-3.55-4.24-3.55h-75.75C166.28,220.29,164.24,222.76,164.77,225.42z"/>
					<path style="opacity:0.2;" d="M245.87,220.29l9.36,53.71l0,0c1.4,0,2.45-1.26,2.21-2.64l-8.77-49.23
						c-0.19-1.07-1.12-1.85-2.21-1.85H245.87z"/>
					<path style="fill:#407BFF;" d="M174.5,278.31h115.24c0-1.19-0.49-2.27-1.26-3.04c-0.78-0.78-1.86-1.26-3.04-1.26H178.83
						C176.44,274,174.5,275.93,174.5,278.31z"/>
					<path style="opacity:0.2;" d="M251.67,278.31h38.07c0-1.19-0.49-2.27-1.26-3.04c-0.78-0.78-1.86-1.26-3.04-1.26H256
						C253.61,274,251.67,275.93,251.67,278.31z"/>
					
						<ellipse transform="matrix(-0.9899 0.1421 -0.1421 -0.9899 450.9667 463.3654)" style="opacity:0.4;fill:#FFFFFF;" cx="208.94" cy="247.78" rx="7.28" ry="10.27"/>
					<path style="opacity:0.2;" d="M174.5,278.31h115.24c0-1.19-0.49-2.27-1.26-3.04c-0.78-0.78-1.86-1.26-3.04-1.26H178.83
						C176.44,274,174.5,275.93,174.5,278.31z"/>
				</g>
				<path style="fill:#263238;" d="M127.3,283.89h199l0,0c0-3.93-3.19-7.12-7.12-7.12H134.43
					C130.49,276.77,127.3,279.96,127.3,283.89L127.3,283.89z"/>
			</g>
		</g>
	</g>
</g>
</svg>
