<?xml version="1.0" encoding="utf-8"?>
<!-- Generator: Adobe Illustrator 17.0.0, SVG Export Plug-In . SVG Version: 6.00 Build 0)  -->
<!DOCTYPE svg PUBLIC "-//W3C//DTD SVG 1.1//EN" "http://www.w3.org/Graphics/SVG/1.1/DTD/svg11.dtd">
<svg version="1.1" id="Calque_1" xmlns="http://www.w3.org/2000/svg" xmlns:xlink="http://www.w3.org/1999/xlink" x="0px" y="0px"
	 width="640px" height="480px" viewBox="0 0 640 480" enable-background="new 0 0 640 480" xml:space="preserve">
<g id="XMLID_1641_">
	<path id="XMLID_1628_" opacity="0.5" fill="#E0DFEA" d="M336.311,482.997c-250.968,0-252.96-52.989,0-52.989
		C587.278,430.007,589.27,482.997,336.311,482.997z"/>
	<g id="XMLID_1627_">
		<path fill="#514342" d="M342.812,353.67c52.816,16.618,28.728,83.757-21.469,77.891c-28.015-3.274-164.537-51.547-179.211-71.987
			c-5.042-7.024-5.93-17.064-1.412-24.436c6.777-11.056,17.861-8.921,28.445-7.294C170.748,328.088,300.211,340.266,342.812,353.67z
			"/>
		<path fill="#463C3A" d="M327.463,432.474c-2.011,0-4.072-0.118-6.184-0.365c-28.976-3.387-165.077-51.991-179.595-72.213
			c-5.331-7.426-5.921-17.726-1.434-25.046c6.743-11.002,17.521-9.329,27.942-7.714l1.057,0.163c0.127,0.02,1.329,0.14,3.15,0.324
			c49.159,4.954,136.691,14.857,170.577,25.52c26.776,8.425,32.485,29.152,29.238,44.342
			C368.428,415.208,351.724,432.474,327.463,432.474z M157.094,327.082c-6.185,0-11.862,1.751-15.903,8.346
			c-4.261,6.951-3.69,16.749,1.39,23.825c14.415,20.079,149.951,68.386,178.827,71.76c26.939,3.151,45.73-15.042,49.73-33.757
			c3.301-15.444-2.449-34.866-28.49-43.06c-33.794-10.632-121.24-20.524-170.358-25.473c-2.173-0.22-3.061-0.309-3.207-0.332
			l-1.059-0.163C164.356,327.658,160.641,327.082,157.094,327.082z"/>
	</g>
	<g id="XMLID_1626_">
		<path fill="#514342" d="M330.254,350.557c-52.816,16.618-28.728,83.757,21.469,77.891c28.015-3.274,164.537-51.547,179.211-71.987
			c5.042-7.024,5.93-17.064,1.412-24.436c-6.777-11.056-17.861-8.921-28.445-7.294C502.317,324.974,372.855,337.152,330.254,350.557
			z"/>
		<path fill="#463C3A" d="M345.603,429.361c-24.263,0-40.964-17.265-44.753-34.988c-3.247-15.19,2.462-35.917,29.238-44.342
			c33.887-10.663,121.418-20.566,170.578-25.52c1.821-0.184,3.023-0.305,3.151-0.324l1.056-0.164
			c10.421-1.616,21.199-3.287,27.943,7.714c4.487,7.32,3.897,17.619-1.434,25.046c-14.517,20.221-150.619,68.826-179.594,72.213
			C349.677,429.241,347.612,429.361,345.603,429.361z M330.254,350.556l0.165,0.526c-26.041,8.194-31.792,27.616-28.491,43.06
			c4,18.715,22.796,36.916,49.731,33.757c28.875-3.374,164.412-51.681,178.826-71.76c5.08-7.076,5.652-16.873,1.39-23.825
			c-6.36-10.375-16.767-8.761-26.833-7.201l-1.058,0.164c-0.146,0.023-1.034,0.112-3.207,0.332
			c-49.118,4.949-136.564,14.841-170.358,25.473L330.254,350.556z"/>
	</g>
	<g id="XMLID_1625_">
		<path fill="#514342" d="M415.84,414.859c-63.128,16.273-100.068,16.501-161.386,0c4.679-50.381,4.364-82.241,17.056-129.009
			l125.665,5.659C412.092,339.113,412.27,368.001,415.84,414.859z"/>
		<path fill="#463C3A" d="M334.138,427.776c-24.744,0-49.144-4.128-79.827-12.385l-0.448-0.121l0.042-0.462
			c1.084-11.671,1.892-22.235,2.672-32.451c2.59-33.897,4.636-60.673,14.401-96.652l0.116-0.426l0.441,0.02l126.051,5.676
			l0.115,0.368c12.891,41.138,14.768,67.976,17.365,105.12c0.409,5.843,0.834,11.929,1.324,18.353l0.035,0.461l-0.447,0.115
			C383.958,423.647,358.876,427.776,334.138,427.776z M255.045,414.448c60.729,16.294,96.812,16.293,160.21-0.008
			c-0.475-6.257-0.89-12.193-1.289-17.898c-2.585-36.959-4.454-63.692-17.202-104.5l-124.837-5.621
			c-9.639,35.665-11.675,62.316-14.25,96.021C256.905,392.527,256.109,402.951,255.045,414.448z"/>
	</g>
	<g id="XMLID_1618_">
		<g id="XMLID_1624_">
			<path fill="#323D4E" d="M342.887,376.517c-0.263,0-0.496-0.188-0.543-0.457c-5.197-29.909-11.087-63.81-3.779-95.641
				c0.069-0.296,0.364-0.481,0.661-0.413c0.297,0.068,0.482,0.364,0.414,0.661c-7.259,31.614-1.388,65.398,3.791,95.204
				c0.052,0.301-0.149,0.586-0.449,0.638C342.95,376.515,342.918,376.517,342.887,376.517z"/>
		</g>
		<g id="XMLID_1623_">
			<path fill="#323D4E" d="M338.19,347.227c-0.126,0-0.252-0.043-0.356-0.13c-18.393-15.566-17.879-20.717-12.961-69.985
				c0.03-0.302,0.302-0.527,0.604-0.493c0.303,0.03,0.524,0.299,0.494,0.603c-4.866,48.746-5.375,53.842,12.576,69.033
				c0.232,0.197,0.261,0.545,0.064,0.778C338.502,347.161,338.346,347.227,338.19,347.227z"/>
		</g>
		<g id="XMLID_1622_">
			<path fill="#323D4E" d="M263.01,326.021c-0.231,0-0.446-0.145-0.523-0.377c-0.096-0.289,0.059-0.601,0.348-0.698
				c18.019-6.023,21.768-7.277,30.586-44.623c0.07-0.295,0.368-0.484,0.663-0.409c0.297,0.07,0.48,0.366,0.41,0.663
				c-8.959,37.944-12.809,39.231-31.31,45.416C263.127,326.012,263.068,326.021,263.01,326.021z"/>
		</g>
		<g id="XMLID_1621_">
			<path fill="#323D4E" d="M263.01,326.021c-0.231,0-0.446-0.145-0.523-0.377c-0.096-0.289,0.059-0.601,0.348-0.698
				c18.019-6.023,21.768-7.277,30.586-44.623c0.07-0.295,0.368-0.484,0.663-0.409c0.297,0.07,0.48,0.366,0.41,0.663
				c-8.959,37.944-12.809,39.231-31.31,45.416C263.127,326.012,263.068,326.021,263.01,326.021z"/>
		</g>
		<g id="XMLID_1620_">
			<path fill="#323D4E" d="M406.353,327.073c-0.058,0-0.117-0.009-0.175-0.028l-0.708-0.237c-17.88-5.972-21.601-7.214-30.42-44.563
				c-0.07-0.297,0.114-0.593,0.41-0.663c0.293-0.075,0.593,0.113,0.663,0.409c8.677,36.752,11.887,37.823,29.695,43.771l0.709,0.236
				c0.289,0.097,0.444,0.409,0.348,0.698C406.799,326.927,406.584,327.073,406.353,327.073z"/>
		</g>
	</g>
	<g id="XMLID_1606_">
		<g id="XMLID_1608_">
			<path fill="#FFFFF6" d="M362.617,424.235c-2.322,9.802-1.896,20.238,1.215,29.819c-37.961,2.199-124.387,20.684-126.715,5.813
				c-0.482-3.08-0.971-1.839,64.43-36.013c11.104-5.802,17.275-2.749,18.882,8.527C321.023,436.556,358.629,425.594,362.617,424.235
				z"/>
			<path fill="#EDE3D7" d="M256.4,466.147c-11.516,0-19.119-1.659-19.829-6.195c-0.438-2.764-0.438-2.764,29.377-18.21
				c8.856-4.587,20.373-10.554,35.343-18.376c5.818-3.039,10.453-3.715,13.778-2.012c3.111,1.596,5.098,5.279,5.905,10.95
				c0.002,0.017,0.01,0.069,0.136,0.146c3.595,2.209,35.727-6.827,41.328-8.738l0.945-0.322l-0.23,0.972
				c-2.313,9.766-1.897,19.975,1.203,29.522l0.221,0.679l-0.714,0.041c-11.617,0.673-27.695,2.862-44.718,5.181
				C296.013,462.935,272.42,466.147,256.4,466.147z M310.982,421.537c-2.533,0-5.604,0.937-9.181,2.807
				c-14.971,7.823-26.49,13.79-35.346,18.378c-28.565,14.798-29.103,15.114-28.809,16.972c1.545,9.867,43.945,4.092,81.35-1.002
				c16.702-2.274,32.496-4.425,44.095-5.147c-2.869-9.233-3.29-19.047-1.227-28.491c-6.274,1.949-37.179,10.877-41.33,8.336
				c-0.469-0.289-0.613-0.666-0.652-0.932c-0.754-5.295-2.543-8.701-5.317-10.124C313.527,421.803,312.331,421.537,310.982,421.537z
				"/>
		</g>
		<g id="XMLID_1607_">
			<path fill="#EDE3D7" d="M264.62,460.618c-0.303,0-0.55-0.246-0.551-0.548c-0.002-0.305,0.244-0.553,0.549-0.555
				c16.706-0.082,33.455-1.913,49.782-5.441c0.3-0.066,0.591,0.124,0.655,0.422c0.064,0.297-0.125,0.591-0.423,0.655
				c-16.401,3.545-33.227,5.385-50.009,5.466C264.622,460.618,264.621,460.618,264.62,460.618z"/>
		</g>
	</g>
	<g id="XMLID_1605_">
		<path fill="#514342" d="M535.228,402.862c53.067-24.182,19.23-91.258-32.486-78.653c-28.863,7.035-165.348,75.1-178.051,98.358
			c-4.365,7.992-3.999,18.602,1.675,25.726c8.509,10.683,19.821,7.022,30.675,3.956
			C358.664,451.791,492.425,422.367,535.228,402.862z"/>
		<path fill="#463C3A" d="M340.955,455.991c-5.435,0-10.583-1.784-15.02-7.354c-5.627-7.065-6.338-17.893-1.727-26.333
			c12.566-23.007,148.555-91.355,178.405-98.63c28.406-6.928,50.917,10.084,57.675,29.603c5.348,15.448,2.055,37.834-24.83,50.086
			c-34.023,15.503-124.228,37.143-174.971,48.661c-1.905,0.432-3.164,0.718-3.294,0.755l-1.085,0.307
			C351.032,454.527,345.876,455.991,340.955,455.991z M515.386,323.204c-4.008,0-8.189,0.488-12.513,1.541
			c-29.751,7.252-165.216,75.236-177.697,98.087c-4.404,8.062-3.737,18.391,1.622,25.118c7.999,10.041,18.68,7.009,29.007,4.077
			l1.087-0.308c0.15-0.042,1.078-0.253,3.35-0.769c50.701-11.509,140.825-33.126,174.757-48.589l0.229,0.502l-0.229-0.502
			c26.183-11.931,29.692-32.991,24.246-48.721C553.673,337.547,537.119,323.204,515.386,323.204z"/>
	</g>
	<g id="XMLID_1602_">
		<g id="XMLID_1604_">
			<path fill="#FFFFF6" d="M314.486,422.61c2.363,9.792,1.982,20.231-1.089,29.824c37.969,2.039,124.473,20.159,126.739,5.278
				c0.469-3.082,0.963-1.843-64.582-35.74c-11.128-5.755-17.287-2.675-18.846,8.607C356.131,434.755,318.479,423.952,314.486,422.61
				z"/>
			<path fill="#EDE3D7" d="M420.236,464.058c-16.006,0-39.288-3.07-62.124-6.081c-17.034-2.247-33.124-4.368-44.745-4.993
				l-0.713-0.038l0.218-0.681c3.059-9.56,3.432-19.77,1.078-29.527l-0.234-0.97l0.945,0.319c5.61,1.886,37.788,10.775,41.365,8.563
				c0.126-0.079,0.133-0.13,0.136-0.148c0.784-5.673,2.755-9.366,5.859-10.974c3.319-1.721,7.957-1.063,13.787,1.953
				c15.003,7.759,26.545,13.677,35.42,18.227c29.881,15.319,29.881,15.319,29.467,18
				C439.985,462.367,432.113,464.058,420.236,464.058z M314.135,451.922c11.603,0.673,27.408,2.757,44.122,4.961
				c37.426,4.934,79.845,10.528,81.334,0.744c0.3-1.947-0.239-2.261-28.867-16.939c-8.875-4.55-20.419-10.469-35.423-18.228
				c-5.495-2.842-9.791-3.497-12.773-1.953c-2.768,1.433-4.542,4.847-5.274,10.146c-0.037,0.266-0.179,0.643-0.647,0.934
				c-4.137,2.56-35.083-6.24-41.365-8.161C317.345,432.861,316.965,442.677,314.135,451.922z"/>
		</g>
		<g id="XMLID_1603_">
			<path fill="#EDE3D7" d="M412.632,458.579c-16.78-0.012-33.614-1.78-50.033-5.255c-0.298-0.064-0.488-0.355-0.425-0.654
				c0.063-0.298,0.355-0.485,0.654-0.425c16.344,3.46,33.101,5.22,49.805,5.232c0.304,0,0.551,0.247,0.551,0.551
				C413.184,458.333,412.936,458.579,412.632,458.579z"/>
		</g>
	</g>
	<g id="XMLID_1601_">
		<path fill="#514342" d="M141.882,406.504c-53.151-23.996-19.549-91.19,32.211-78.766c28.887,6.934,165.609,74.521,178.394,97.734
			c4.393,7.977,4.064,18.588-1.585,25.731c-8.472,10.713-19.796,7.091-30.661,4.064
			C318.616,454.814,184.754,425.859,141.882,406.504z"/>
		<path fill="#463C3A" d="M336.253,458.952c-4.896,0-10.026-1.437-15.075-2.851l-1.085-0.304c-0.13-0.036-1.381-0.315-3.274-0.738
			c-50.786-11.341-141.074-32.664-175.163-48.054c-26.928-12.157-30.3-34.531-25.006-49.998
			c6.69-19.543,29.143-36.628,57.571-29.807c29.875,7.17,166.103,75.042,178.749,98.005c4.639,8.424,3.967,19.255-1.635,26.339
			C346.894,457.16,341.72,458.952,336.253,458.952z M161.619,326.776c-21.822,0-38.395,14.434-43.926,30.59
			c-5.391,15.749-1.808,36.796,24.416,48.635c33.999,15.35,124.206,36.652,174.95,47.983c2.258,0.505,3.18,0.711,3.33,0.753
			l1.087,0.304c10.339,2.895,21.03,5.89,28.994-4.179c5.335-6.745,5.966-17.076,1.534-25.122
			c-12.561-22.809-148.264-90.318-178.04-97.464C169.7,327.251,165.573,326.776,161.619,326.776z"/>
	</g>
	<g id="XMLID_1553_">
		<path id="XMLID_1600_" fill="#F9A587" d="M312.792,97.191c0.229,18.768,6.446,32.685-28.07,48.926
			c20.545,28.266,40.78,38.71,40.78,38.71s43.288-19.486,58.162-32.379c-7.74-5.632-15.82-9.839-22.958-14.855
			c-14.101-9.909-5.782-31.925-8.535-40.054L312.792,97.191z"/>
		<path id="XMLID_1599_" fill="#EA795C" d="M356.116,132.948c-3.8-5.579-4.035-11.994-3.801-20.885
			c-18.123,12.809-26.832,6.926-38.266-1.472C330.447,134.267,340.099,125.55,356.116,132.948z"/>
		<path id="XMLID_1594_" fill="#F9A587" d="M346.801,117.355c9.877-3.151,25.918-31.852,19.895-67.206
			c-6.072-35.642-45.72-39.907-61.451-15.863C290.104,57.429,299.899,132.318,346.801,117.355z"/>
		<path id="XMLID_1540_" fill="#30323E" d="M319.24,44.713c6.51-1.317,14.222-10.096,21.091-5.728
			c12.065,7.672,24.814,13.409,25.422,46.752c7.199-28.375,5.542-21.807,11.539-27.024c9.445-8.217-3.989-22.847-6.216-30.066
			c-2.153-6.979-0.203-16.205-15.192-21.132c-4.752-1.562-5.867-0.537-9.188,0.393c-17.416,4.875-36.429-19.84-49.636,7.655
			c-2.909,6.057-1.468,6.639-0.507,11.086c2.12,9.804-7.359,18.376-8.612,28.328c-0.536,4.26,13.322,29.958,13.322,29.958
			s-0.074-11.733,0.255-14.146C305.508,41.449,313.632,45.847,319.24,44.713z"/>
		<g id="XMLID_1584_">
			<g id="XMLID_1591_">
				<path id="XMLID_1592_" fill="#F9A587" d="M371.415,65.865c-6.872-1.715-6.711,12.521-6.435,19.578
					C365.522,99.356,382.239,68.565,371.415,65.865z"/>
			</g>
			<g id="XMLID_1587_">
				<path id="XMLID_1588_" fill="#F9A587" d="M295.611,68.812c6.707-2.277,7.724,11.922,8.034,18.978
					C304.256,101.701,285.048,72.399,295.611,68.812z"/>
			</g>
		</g>
		<g id="XMLID_1574_">
			<path id="XMLID_1582_" fill="#30323E" d="M341.321,60.3c0.516,0.268,17.667,1.537,17.94,1.446
				c4.149-1.375-10.504-7.231-17.713-4.08C340.63,58.068,340.383,59.813,341.321,60.3z"/>
			<path id="XMLID_1577_" fill="#30323E" d="M324.753,57.147c-7.321-2.881-20.971,3.726-17.501,4.91
				C311.838,62.057,331.245,59.702,324.753,57.147z"/>
			<g id="XMLID_1576_">
				<path fill="#EA795C" d="M333.492,88.99c-0.461,0-0.987-0.085-1.62-0.314c-2.322-0.841-1.644-4.088-0.784-8.197
					c0.559-2.676,1.193-5.708,1.06-8.462c-0.014-0.304,0.22-0.563,0.524-0.577c0.282-0.03,0.562,0.22,0.577,0.524
					c0.139,2.894-0.51,6-1.082,8.74c-0.72,3.445-1.342,6.42,0.081,6.935c1.204,0.436,1.804,0.227,2.636-0.062
					c0.596-0.207,1.271-0.441,2.227-0.441c0.305,0,0.551,0.247,0.551,0.551c0,0.305-0.247,0.551-0.551,0.551
					c-0.77,0-1.302,0.185-1.865,0.38C334.716,88.803,334.176,88.99,333.492,88.99z"/>
			</g>
			<path id="XMLID_293_" fill="#FFFFFF" d="M340.801,98.154c0.45-0.26,1.215-0.071,1.163,0.446c-0.39,3.847-2.949,8.049-4.853,9.196
				c-5.647,3.399-11.727-8.28-7.627-8.237C331.603,99.581,336.551,100.615,340.801,98.154z"/>
		</g>
		<g id="XMLID_1543_">
			<path fill="#EA795C" d="M368.266,82.808c-0.102,0-0.206-0.029-0.298-0.088c-0.256-0.165-0.33-0.506-0.165-0.762
				c1.856-2.885,2.294-6.684,1.142-9.916c-0.102-0.287,0.047-0.602,0.334-0.705c0.287-0.102,0.602,0.047,0.705,0.334
				c1.264,3.546,0.784,7.716-1.254,10.883C368.625,82.719,368.447,82.808,368.266,82.808z"/>
		</g>
		<g id="XMLID_1544_">
			<path fill="#EA795C" d="M300.25,85.444c-0.151,0-0.301-0.062-0.41-0.183c-2.514-2.803-3.65-6.844-2.964-10.546
				c0.055-0.301,0.341-0.502,0.642-0.442c0.3,0.055,0.497,0.343,0.442,0.642c-0.624,3.373,0.41,7.055,2.7,9.609
				c0.203,0.227,0.185,0.576-0.042,0.779C300.513,85.398,300.381,85.444,300.25,85.444z"/>
		</g>
		<g id="XMLID_1568_">
			<g id="XMLID_1556_">
				<path fill="#353B4A" d="M337.117,34.421c-0.081,0-0.164-0.018-0.242-0.057c-0.274-0.134-0.386-0.464-0.252-0.738
					c2.854-5.82,3.765-13.16,2.707-21.817c-0.037-0.302,0.178-0.577,0.48-0.614c0.302-0.045,0.577,0.178,0.614,0.48
					c1.085,8.872,0.138,16.421-2.812,22.436C337.517,34.308,337.321,34.421,337.117,34.421z"/>
			</g>
			<g id="XMLID_1557_">
				<path fill="#353B4A" d="M358.717,14.19c-0.12,0-0.24-0.039-0.341-0.118c-6.204-4.888-11.879-2.121-14.71-0.036
					c-0.246,0.18-0.591,0.128-0.771-0.117c-0.181-0.245-0.129-0.59,0.117-0.771c5.246-3.863,11.095-3.843,16.047,0.059
					c0.239,0.188,0.28,0.535,0.091,0.774C359.042,14.118,358.88,14.19,358.717,14.19z"/>
			</g>
			<g id="XMLID_1558_">
				<path fill="#353B4A" d="M354.323,24.591c-1.812,0-7.61-0.276-10.751-3.652c-0.207-0.223-0.195-0.572,0.028-0.78
					c0.224-0.207,0.572-0.194,0.78,0.028c3.325,3.573,10.367,3.295,10.438,3.291c0.332-0.012,0.562,0.222,0.576,0.526
					c0.014,0.304-0.221,0.562-0.525,0.576C354.824,24.583,354.631,24.591,354.323,24.591z"/>
			</g>
			<g id="XMLID_1559_">
				<path fill="#353B4A" d="M354.919,44.502c-0.112,0-0.224-0.034-0.321-0.104c-4.244-3.051-5.806-6.003-7.062-8.376
					c-1.406-2.659-2.336-4.416-6.201-5.099c-0.3-0.053-0.5-0.339-0.447-0.639c0.052-0.3,0.336-0.501,0.639-0.447
					c4.395,0.777,5.538,2.935,6.984,5.668c1.201,2.271,2.696,5.096,6.731,7.997c0.247,0.178,0.304,0.522,0.125,0.769
					C355.259,44.422,355.091,44.502,354.919,44.502z"/>
			</g>
			<g id="XMLID_1560_">
				<path fill="#353B4A" d="M333.813,12.315c-3.336,0-6.735-1.153-9.836-2.206c-4.601-1.56-8.574-2.909-10.947-0.225
					c-0.201,0.229-0.549,0.25-0.778,0.048c-0.228-0.201-0.25-0.55-0.048-0.778c2.856-3.235,7.361-1.707,12.127-0.088
					c4.135,1.403,8.823,2.992,12.953,1.614c0.292-0.098,0.602,0.06,0.698,0.348c0.096,0.289-0.059,0.601-0.348,0.698
					C336.384,12.143,335.103,12.315,333.813,12.315z"/>
			</g>
			<g id="XMLID_1562_">
				<path fill="#353B4A" d="M327.435,22.721c-0.109,0-0.219-0.032-0.315-0.099c-0.25-0.175-0.311-0.519-0.137-0.768
					c2.212-3.166,6.378-2.09,9.321-1.004c0.285,0.106,0.431,0.423,0.326,0.709c-0.106,0.286-0.423,0.433-0.709,0.326
					c-4.186-1.546-6.665-1.361-8.034,0.6C327.78,22.638,327.609,22.721,327.435,22.721z"/>
			</g>
			<g id="XMLID_1563_">
				<path fill="#353B4A" d="M317.824,39.28c-0.176,0-0.348-0.084-0.456-0.24c-0.172-0.251-0.108-0.594,0.143-0.767
					c3.779-2.588,5.673-2.758,7.344-2.909c2.033-0.182,3.789-0.34,8.976-5.319c0.219-0.209,0.569-0.204,0.78,0.016
					c0.211,0.22,0.204,0.569-0.016,0.78c-5.466,5.247-7.494,5.429-9.641,5.622c-1.612,0.145-3.279,0.295-6.819,2.72
					C318.04,39.249,317.932,39.28,317.824,39.28z"/>
			</g>
			<g id="XMLID_1564_">
				<path fill="#353B4A" d="M300.214,68.091c-0.23,0-0.444-0.144-0.522-0.374c-0.728-2.14-2.631-3.813-4.847-4.262
					c-0.299-0.061-0.491-0.352-0.431-0.65c0.061-0.298,0.349-0.495,0.65-0.431c2.593,0.526,4.819,2.483,5.672,4.988
					c0.098,0.288-0.056,0.601-0.344,0.7C300.333,68.082,300.273,68.091,300.214,68.091z"/>
			</g>
			<g id="XMLID_1565_">
				<path fill="#353B4A" d="M365.369,65.386c-0.024,0-0.048-0.002-0.073-0.005c-0.302-0.04-0.514-0.317-0.475-0.618
					c0.391-2.963,3.691-4.042,5.464-4.622c0.29-0.096,0.602,0.064,0.695,0.353c0.095,0.289-0.063,0.6-0.353,0.695
					c-2.135,0.698-4.436,1.62-4.714,3.718C365.878,65.185,365.641,65.386,365.369,65.386z"/>
			</g>
			<g id="XMLID_1566_">
				<path fill="#353B4A" d="M295.277,50.094c-0.042,0-0.085-0.005-0.127-0.014c-0.296-0.07-0.48-0.367-0.41-0.663
					c0.926-3.935,2.588-6.175,4.054-8.151c2.526-3.406,4.522-6.095,2.215-15.904c-0.841-3.576-1.282-7.052,2.511-10.261
					c0.233-0.197,0.58-0.168,0.777,0.065c0.197,0.232,0.168,0.581-0.065,0.777c-3.036,2.569-3.106,5.103-2.149,9.167
					c2.424,10.306,0.187,13.321-2.403,16.813c-1.471,1.983-2.992,4.034-3.866,7.747C295.754,49.923,295.527,50.094,295.277,50.094z"
					/>
			</g>
			<g id="XMLID_1567_">
				<path fill="#353B4A" d="M375.457,52.399c-0.076,0-0.154-0.016-0.229-0.05c-0.277-0.127-0.398-0.453-0.272-0.731
					c1.562-3.42,0.92-7.781-1.561-10.606c-1.076-1.224-2.263-2.102-3.412-2.952c-2.953-2.185-5.744-4.248-5.327-11.372
					c0.018-0.304,0.265-0.536,0.583-0.518c0.304,0.018,0.536,0.279,0.518,0.583c-0.381,6.527,1.942,8.246,4.882,10.421
					c1.195,0.884,2.431,1.798,3.584,3.11c2.759,3.141,3.473,7.99,1.735,11.792C375.866,52.28,375.666,52.399,375.457,52.399z"/>
			</g>
		</g>
		<path id="XMLID_67_" fill="#382823" d="M315.956,76.503c-2.082-0.148-3.146-8.183,1.905-7.822
			C320.557,68.873,319.363,76.746,315.956,76.503z"/>
		<path id="XMLID_68_" fill="#382823" d="M348.669,76.503c-2.082-0.148-3.146-8.183,1.905-7.822
			C353.27,68.873,352.076,76.746,348.669,76.503z"/>
	</g>
	<g id="XMLID_1542_">
		<path fill="#8A9077" d="M303.624,136.854c13.276,14.906,38.552,25.035,55.947,2.287c1.378-1.802-0.156-2.329,38.34,11.723
			c17.131,146.084,24.263,183.673,10.236,185.046c-52.031,5.094-114.189,27.752-146.967,2.599
			c-18.988-14.57-4.231-175.073,1.406-187.755C303.205,135.087,301.857,134.869,303.624,136.854z"/>
		<path fill="#787160" d="M303.941,350.654c-16.765,0-31.746-2.998-43.096-11.708c-11.055-8.482-10.225-63.191-8.746-95.048
			c2.035-43.856,7.126-86.938,9.984-93.369l0.093-0.208l0.213-0.082c8.846-3.412,15.701-6.091,21.031-8.174
			c18.996-7.424,18.997-7.425,20.513-5.696l0.104,0.118c6.926,7.776,18.955,15.92,31.88,15.428
			c9.011-0.337,16.823-4.748,23.217-13.109l0.137-0.187c1.4-1.934,1.397-1.938,37.264,11.156l1.885,0.688l0.039,0.338
			c2.652,22.618,5.067,42.649,7.197,60.321c10.049,83.373,13.809,114.568,7.122,122.894c-1.171,1.458-2.668,2.257-4.577,2.445
			c-14.036,1.373-29.05,4.071-43.57,6.679C343.9,346.862,322.792,350.654,303.941,350.654z M263.003,151.184
			c-2.82,7.004-7.85,50.675-9.804,92.765c-2.499,53.844,0.533,88.15,8.316,94.123c23.728,18.206,63.988,10.976,102.921,3.982
			c14.541-2.613,29.577-5.314,43.657-6.692c1.599-0.156,2.85-0.823,3.825-2.037c6.396-7.965,2.37-41.369-7.358-122.073
			c-2.12-17.585-4.521-37.504-7.158-59.987l-1.246-0.455c-33.102-12.085-35.082-12.806-35.993-11.546l-0.156,0.211
			c-6.603,8.636-14.695,13.192-24.051,13.542c-13.344,0.489-25.653-7.833-32.745-15.797l-0.109-0.124
			c-0.985-1.123-1.349-1.012-19.282,5.996C278.533,145.159,271.745,147.812,263.003,151.184z"/>
	</g>
	<g id="XMLID_1549_">
		<g id="XMLID_1551_">
			<path id="XMLID_1552_" fill="#EA795C" d="M324.64,328.574c-1.999-2.074,2.387-5.027,3.858-1.559
				c0.483,1.139,0.166,2.512-0.589,3.492c2.708,0.546,3.518-4.49,6.192-4.238c5.064,0.477,1.115,25.579-13.758,22.816
				c-3.18-0.591-1.294-3.15-0.645-5.31C324.061,329.256,314.94,321.097,324.64,328.574z"/>
		</g>
		<path id="XMLID_1550_" fill="#F9A587" d="M259.96,336.088l4.719-16.407l33.931,11.366c14.175-1.395,22.144-7.601,31.902,0.305
			c0.74,0.599,0.723,1.791-0.103,2.267c-3.51,2.022-6.908,0.421-8.412,0.2c-6.267-0.922-14.892,8.995-3.402,12.688
			c16.194,5.204,16.891-14.505,21.708-16.319c4.354-1.64,2.978,6.746-4.272,18.652c-4.098,6.73-5.063,3.176-14.413,6.662
			c-2.705,1.008-3.359,1.13-5.893-0.072C291.464,343.921,299.351,346.996,259.96,336.088z"/>
	</g>
	<g id="XMLID_1633_">
		<path fill="#8A9077" d="M167.029,287.473c-16.932,25.702,2.609,36.192,18.372,40.93c20.797,6.252,107.421,27.46,110.815,18.325
			c6.122-16.479,6.98-19.416,3.479-21.372c-85.421-47.719-96.738-18.04-46.722-68.056c5.641-5.641,9.31-12.942,10.497-20.831
			c4.523-30.076,8.08-89.172-0.884-85.715C240.118,159.42,213.549,216.857,167.029,287.473z"/>
		<path fill="#787160" d="M287.545,349.435c-24.407,0-89.29-16.592-102.303-20.504c-13.338-4.009-21.493-9.877-24.238-17.442
			c-2.464-6.791-0.592-14.973,5.565-24.32c14.92-22.648,27.782-43.931,39.129-62.708c23.951-39.633,41.255-68.269,56.691-74.222
			c0.862-0.334,1.695-0.206,2.407,0.364c7.012,5.624,3.163,59.726-0.779,85.947c-1.214,8.075-4.898,15.385-10.653,21.139
			c-6.455,6.455-11.899,11.593-16.273,15.721c-9.238,8.719-13.875,13.095-13.293,15.904c0.535,2.579,5.712,4.456,15.11,7.865
			c12.233,4.436,32.709,11.86,61.057,27.696c3.968,2.217,2.825,5.744-3.231,22.045C296.075,348.69,292.718,349.435,287.545,349.435z
			 M167.489,287.776c-5.955,9.039-7.788,16.89-5.448,23.337c2.62,7.219,10.533,12.858,23.519,16.762
			c27.072,8.139,107.206,26.553,110.139,18.661c6.039-16.255,6.786-18.989,3.728-20.698c-28.271-15.793-48.693-23.198-60.895-27.623
			c-10.09-3.658-15.154-5.495-15.814-8.678c-0.707-3.412,3.782-7.647,13.616-16.929c4.369-4.122,9.806-9.255,16.25-15.698
			c5.586-5.586,9.162-12.683,10.341-20.523c4.533-30.143,7.082-80.19,1.181-84.922c-0.406-0.326-0.825-0.388-1.321-0.197
			c-15.083,5.818-32.307,34.318-56.144,73.763C195.288,243.818,182.421,265.109,167.489,287.776L167.489,287.776z"/>
	</g>
	<g id="XMLID_1545_">
		<g id="XMLID_1547_">
			<path id="XMLID_1548_" fill="#EA795C" d="M334.587,327.402c1.892-2.172-2.637-4.901-3.932-1.363
				c-0.425,1.162-0.04,2.517,0.763,3.458c-2.677,0.682-3.739-4.306-6.397-3.921c-5.034,0.731,0.174,25.603,14.889,22.094
				c3.146-0.75,1.133-3.21,0.376-5.335C335.199,328.054,343.898,319.446,334.587,327.402z"/>
		</g>
		<path id="XMLID_1546_" fill="#F9A587" d="M399.563,331.65l-5.539-16.149l-33.315,13.06c-14.227-0.68-22.499-6.476-31.846,1.911
			c-0.709,0.636-0.632,1.825,0.216,2.258c3.607,1.843,6.92,0.073,8.411-0.224c6.213-1.236,15.327,8.234,4.037,12.5
			c-15.911,6.013-17.6-13.636-22.502-15.206c-4.431-1.418-2.635,6.888,5.206,18.413c4.432,6.515,5.216,2.918,14.73,5.927
			c2.752,0.871,3.412,0.96,5.882-0.368C368.493,341.06,360.771,344.527,399.563,331.65z"/>
	</g>
	<g id="XMLID_1634_">
		<path fill="#8A9077" d="M429.707,290.707c-41.099,15.723-63.166,26.899-70.646,30.913c-4.704,2.525-0.948,7.237,3.087,21.815
			c0.59,2.132,2.697,3.488,4.883,3.145c132.142-20.712,138.555-31.424,126.704-57.503c-8.149-17.934-76.671-131.28-95.824-138.213
			c-6.941-2.513-8.067,55.054-3.581,78.843C398.499,251.807,440.189,286.697,429.707,290.707z"/>
		<path fill="#787160" d="M366.349,347.184c-2.176,0.001-4.136-1.446-4.732-3.601c-1.133-4.092-2.252-7.432-3.152-10.114
			c-2.371-7.073-3.454-10.301,0.335-12.334c7.588-4.073,29.667-15.241,70.709-30.943c0.685-0.262,1.094-0.672,1.251-1.254
			c0.928-3.429-6.195-12.291-13.737-21.674c-9.904-12.324-21.131-26.292-23.236-37.455c-4.2-22.273-3.434-74.086,2.428-79.073
			c0.729-0.621,1.425-0.555,1.882-0.391c19.606,7.098,88.546,121.796,96.138,138.504c3.816,8.397,5.687,15.231,2.42,21.291
			c-7.252,13.453-41.151,23.131-129.541,36.985C366.859,347.165,366.603,347.184,366.349,347.184z M429.904,291.221
			c-40.984,15.68-63.013,26.823-70.582,30.885c-2.842,1.526-2.263,3.701,0.189,11.012c0.904,2.696,2.028,6.05,3.169,10.17
			c0.516,1.866,2.347,3.05,4.266,2.747c87.991-13.791,121.68-23.322,128.741-36.418c3.062-5.681,1.331-11.983-2.453-20.312
			c-9.281-20.426-76.881-131.179-95.51-137.924c-0.183-0.067-0.44-0.104-0.791,0.194c-5.134,4.367-6.462,54.685-2.06,78.029
			c2.054,10.893,13.675,25.351,23.012,36.968c8.39,10.439,15.016,18.684,13.942,22.654
			C431.573,290.16,430.926,290.83,429.904,291.221L429.904,291.221z"/>
	</g>
	<g id="XMLID_844_">
		<g id="XMLID_836_">
			<path fill="#FFBA73" d="M308.041,302.573c-0.17,0-0.337-0.078-0.445-0.225c-10.541-14.349-23.659-32.207-25.673-52.592
				c-1.201-12.153,1.614-24.408,4.336-36.26c3.062-13.331,6.228-27.116,3.516-40.521c-1.485-7.342-4.678-14.265-7.766-20.96
				l-3.428-7.433c-0.128-0.277-0.007-0.604,0.27-0.732c0.278-0.127,0.604-0.007,0.732,0.27l3.428,7.433
				c3.115,6.753,6.335,13.735,7.846,21.202c2.759,13.639-0.435,27.542-3.523,40.987c-2.702,11.765-5.496,23.931-4.313,35.905
				c1.984,20.083,15.003,37.806,25.464,52.048c0.18,0.245,0.128,0.59-0.118,0.771C308.269,302.539,308.154,302.573,308.041,302.573z
				"/>
		</g>
		<g id="XMLID_838_">
			<path fill="#FFBA73" d="M389.817,301.288c-0.345-0.025-0.573-0.289-0.55-0.592c1.233-16.479,2.509-33.519-0.967-49.98
				c-1.561-7.396-4.111-14.709-6.576-21.781c-3.423-9.819-6.962-19.974-7.911-30.505c-1.653-18.329,4.471-35.945,11.334-52.253
				c0.119-0.281,0.444-0.411,0.722-0.295c0.281,0.119,0.413,0.442,0.295,0.722c-6.808,16.176-12.884,33.637-11.253,51.726
				c0.937,10.396,4.453,20.485,7.854,30.241c2.476,7.105,5.037,14.451,6.613,21.915c3.507,16.615,2.226,33.734,0.987,50.29
				C390.345,301.068,390.103,301.288,389.817,301.288z"/>
		</g>
		<g id="XMLID_823_">
			<path fill="#FFFFFF" d="M351.255,234.022c-25.226,0.001-50.844-6.745-74.091-12.865c-18.495-4.869-35.964-9.467-49.735-9.504
				c-4.547,0.007-9.178,0.439-13.71,1.343c-0.296,0.061-0.589-0.134-0.648-0.433c-0.06-0.298,0.134-0.589,0.433-0.648
				c4.604-0.918,9.281-1.35,13.929-1.365c13.912,0.037,31.447,4.653,50.013,9.54c30.244,7.963,64.523,16.99,96.565,10.742
				c10.429-2.032,20.544-5.624,30.325-9.097c13.556-4.814,27.573-9.792,42.745-10.759c0.298-0.03,0.565,0.211,0.585,0.515
				c0.019,0.305-0.211,0.566-0.515,0.586c-15.018,0.957-28.961,5.909-42.446,10.697c-9.819,3.487-19.973,7.094-30.482,9.142
				C366.657,233.39,358.972,234.022,351.255,234.022z"/>
		</g>
		<g id="XMLID_839_">
			<path fill="#FFBA73" d="M169.343,321.574c-0.119,0-0.24-0.039-0.34-0.118c-0.24-0.187-0.28-0.534-0.092-0.774
				c6.642-8.44,14.377-16.259,21.858-23.821c12.503-12.639,25.432-25.708,33.292-41.822c4.788-9.816,7.604-20.619,10.328-31.066
				c2.419-9.28,4.921-18.876,8.802-27.809c2.645-6.089,5.968-11.953,9.181-17.624c2.734-4.825,5.561-9.814,7.949-14.906
				c2.325-4.958,4.056-9.778,5.143-14.326c0.071-0.296,0.37-0.477,0.664-0.408c0.296,0.071,0.479,0.368,0.408,0.664
				c-1.106,4.621-2.861,9.512-5.218,14.537c-2.406,5.13-5.243,10.139-7.988,14.982c-3.2,5.645-6.508,11.484-9.13,17.519
				c-3.847,8.855-6.338,18.409-8.747,27.649c-2.737,10.499-5.568,21.355-10.404,31.269c-7.94,16.279-20.933,29.413-33.498,42.115
				c-7.459,7.541-15.172,15.336-21.775,23.729C169.668,321.502,169.506,321.574,169.343,321.574z"/>
		</g>
		<g id="XMLID_842_">
			<path fill="#FFBA73" d="M475.332,324.308c-0.142,0-0.283-0.054-0.391-0.163c-5.162-5.19-9.377-12.371-12.187-20.766
				c-2.256-6.738-3.631-13.82-4.961-20.668c-1.056-5.437-2.149-11.06-3.673-16.462c-4.124-14.609-11.618-28.685-22.274-41.835
				c-1.419-1.751-2.909-3.503-4.35-5.198c-3.797-4.464-7.723-9.079-10.792-14.201c-5.22-8.705-7.914-18.789-10.048-28.391
				c-1.644-7.403-3.069-14.952-4.233-22.44c-0.047-0.301,0.159-0.583,0.46-0.629c0.304-0.044,0.583,0.159,0.629,0.46
				c1.161,7.464,2.58,14.99,4.221,22.37c2.113,9.51,4.778,19.493,9.917,28.063c3.023,5.043,6.919,9.623,10.687,14.054
				c1.445,1.699,2.94,3.456,4.367,5.219c10.751,13.267,18.313,27.475,22.478,42.229c1.537,5.446,2.634,11.091,3.695,16.551
				c1.323,6.814,2.692,13.858,4.925,20.527c2.757,8.236,6.88,15.269,11.923,20.34c0.215,0.215,0.214,0.565-0.002,0.78
				C475.612,324.254,475.472,324.308,475.332,324.308z"/>
		</g>
		<g id="XMLID_824_">
			<path fill="#FFFFFF" d="M343.642,279.057c-12.925,0-26.839-1.291-42.005-4.405c-12.214-2.51-24.433-6.189-36.248-9.748
				c-24.295-7.317-49.42-14.888-75.63-12.566c-0.295,0.021-0.571-0.198-0.598-0.501c-0.027-0.304,0.197-0.571,0.501-0.598
				c26.426-2.332,51.649,5.262,76.045,12.608c11.792,3.552,23.986,7.224,36.152,9.722c54.963,11.293,93.561-1.518,127.616-12.82
				c14.208-4.715,27.628-9.168,41.567-11.827c0.298-0.058,0.587,0.139,0.645,0.438c0.057,0.299-0.14,0.588-0.438,0.645
				c-13.868,2.645-27.254,7.087-41.426,11.79C405.02,270.028,377.808,279.055,343.642,279.057z"/>
		</g>
		<g id="XMLID_822_">
			<path fill="#FFFFFF" d="M369.226,198.197c-19.631,0-39.004-5.313-57.811-10.469c-24.771-6.793-50.387-13.817-76.24-8.451
				c-0.301,0.067-0.59-0.129-0.652-0.428c-0.062-0.298,0.13-0.59,0.428-0.652c26.112-5.42,51.859,1.64,76.755,8.466
				c21.047,5.771,42.804,11.74,64.752,10.177c13.589-0.967,26.967-4.845,39.906-8.595c4.107-1.191,8.355-2.422,12.549-3.543
				c0.29-0.072,0.596,0.097,0.675,0.391c0.079,0.294-0.096,0.596-0.39,0.675c-4.183,1.118-8.425,2.347-12.527,3.536
				c-12.993,3.766-26.428,7.661-40.134,8.637C374.098,198.115,371.658,198.197,369.226,198.197z"/>
		</g>
		<g id="XMLID_837_">
			<path fill="#FFBA73" d="M351.296,325.332c-0.05,0-0.101-0.006-0.152-0.021c-0.293-0.083-0.463-0.388-0.379-0.68
				c4.62-16.203,4.227-33.927-1.105-49.909c-2.105-6.31-5-12.471-7.801-18.429c-3.857-8.209-7.846-16.698-9.835-25.711
				c-3.093-14.022-1.276-28.797,0.481-43.085c1.43-11.621,2.907-23.638,1.647-34.948c-0.033-0.302,0.184-0.575,0.487-0.609
				c0.297-0.027,0.575,0.184,0.609,0.487c1.275,11.438-0.211,23.519-1.648,35.204c-1.746,14.196-3.552,28.875-0.499,42.714
				c1.962,8.893,5.924,17.326,9.756,25.479c2.813,5.988,5.723,12.179,7.848,18.55c5.402,16.189,5.799,34.146,1.12,50.559
				C351.756,325.173,351.536,325.332,351.296,325.332z"/>
		</g>
		<g id="XMLID_821_">
			<path fill="#FFFFFF" d="M322.475,167.99c-14.36,0-28.798-3.157-42.901-6.24c-8.428-1.843-17.144-3.748-25.738-4.963
				c-0.302-0.042-0.512-0.321-0.469-0.623c0.043-0.302,0.327-0.511,0.623-0.469c8.636,1.221,17.371,3.131,25.82,4.978
				c19.836,4.336,40.347,8.82,60.227,4.379c6.401-1.429,12.15-3.603,18.236-5.905c9.28-3.509,19.798-7.486,35.826-10.186
				c0.3-0.049,0.585,0.152,0.636,0.452c0.051,0.301-0.152,0.585-0.452,0.635c-15.922,2.682-26.387,6.639-35.619,10.13
				c-6.125,2.316-11.91,4.504-18.387,5.95C334.378,167.446,328.432,167.99,322.475,167.99z"/>
		</g>
		<g id="XMLID_834_">
			<path fill="#FFFFFF" d="M160.711,302.954c-0.178,0-0.352-0.086-0.459-0.245c-0.17-0.253-0.102-0.595,0.151-0.765
				c18.038-12.082,39.366-11.4,54.939-10.904c3.491,0.112,6.787,0.216,9.563,0.149c0.302,0.029,0.557,0.234,0.565,0.537
				c0.008,0.305-0.234,0.558-0.538,0.565c-2.808,0.069-6.12-0.036-9.625-0.148c-15.425-0.494-36.548-1.166-54.29,10.716
				C160.923,302.924,160.816,302.954,160.711,302.954z"/>
		</g>
		<g id="XMLID_832_">
			<path fill="#FFFFFF" d="M217.209,337.24c-0.087,0-0.174-0.02-0.256-0.063c-0.269-0.141-0.373-0.475-0.231-0.744
				c8.291-15.771,22.148-27.399,39.018-32.743c0.292-0.089,0.6,0.069,0.692,0.358c0.092,0.291-0.069,0.601-0.359,0.692
				c-16.591,5.255-30.22,16.692-38.376,32.204C217.598,337.133,217.407,337.24,217.209,337.24z"/>
		</g>
		<g id="XMLID_828_">
			<path fill="#FFFFFF" d="M497.794,303.602c-0.021,0-0.044-0.001-0.066-0.004c-13.659-1.625-25.91-6.895-37.758-11.994
				c-10.986-4.726-22.347-9.615-34.558-11.384c-0.302-0.044-0.51-0.324-0.466-0.625c0.043-0.302,0.322-0.508,0.625-0.467
				c12.355,1.791,23.784,6.708,34.836,11.462c11.776,5.067,23.953,10.306,37.453,11.913c0.303,0.036,0.519,0.31,0.482,0.612
				C498.308,303.396,498.07,303.602,497.794,303.602z"/>
		</g>
		<g id="XMLID_845_">
			<path fill="#FFBA73" d="M342.214,338.609c-0.088,0-0.177-0.02-0.26-0.066c-0.268-0.143-0.369-0.478-0.226-0.746
				c3.901-7.279,21.66-10.491,44.143-14.559c18.693-3.38,39.879-7.213,57.005-14.281c4.508-1.861,8.997-4.02,13.338-6.108
				c7.978-3.837,16.228-7.806,24.943-10.09c2.417-0.634,5.056-1.153,7.85-1.704c1.72-0.338,3.483-0.685,5.255-1.072
				c0.295-0.068,0.591,0.123,0.656,0.421c0.065,0.297-0.123,0.591-0.421,0.656c-1.78,0.389-3.55,0.737-5.277,1.077
				c-2.776,0.547-5.399,1.063-7.782,1.688c-8.614,2.258-16.815,6.203-24.746,10.018c-4.355,2.094-8.858,4.261-13.395,6.133
				c-17.234,7.113-38.483,10.956-57.23,14.348c-21.312,3.855-39.717,7.185-43.366,13.995
				C342.602,338.503,342.411,338.609,342.214,338.609z"/>
		</g>
		<g id="XMLID_829_">
			<path fill="#FFFFFF" d="M443.138,333.327c-0.083,0-0.168-0.018-0.247-0.059c-10.656-5.353-18.873-14.224-26.122-22.05
				c-6.334-6.838-12.317-13.298-19.044-16.647c-0.273-0.136-0.384-0.466-0.248-0.739c0.136-0.273,0.468-0.386,0.739-0.248
				c6.907,3.439,12.957,9.969,19.362,16.884c7.537,8.136,15.331,16.55,25.808,21.814c0.272,0.137,0.382,0.469,0.245,0.741
				C443.535,333.216,443.34,333.327,443.138,333.327z"/>
		</g>
		<g id="XMLID_846_">
			<path fill="#FFBA73" d="M312.996,337.163c-0.029,0-0.059-0.002-0.088-0.007c-10.384-1.67-19.663-7.168-28.636-12.484
				c-8.812-5.221-17.924-10.619-28.005-12.309c-5.107-0.856-10.409-0.743-15.535-0.629c-2.324,0.049-4.729,0.099-7.089,0.064
				c-29.224-0.468-45.372-12.138-58.347-21.515c-2.421-1.75-4.708-3.403-6.921-4.858c-0.254-0.168-0.325-0.509-0.157-0.763
				c0.167-0.254,0.508-0.324,0.763-0.158c2.233,1.469,4.53,3.128,6.961,4.886c12.85,9.286,28.842,20.843,57.719,21.306
				c2.345,0.035,4.735-0.014,7.048-0.065c5.178-0.114,10.532-0.229,15.741,0.644c10.284,1.724,19.486,7.176,28.385,12.448
				c8.885,5.263,18.072,10.706,28.25,12.343c0.3,0.047,0.505,0.331,0.456,0.631C313.496,336.97,313.262,337.163,312.996,337.163z"/>
		</g>
	</g>
	<g id="XMLID_1640_">
		<g id="XMLID_1589_">
			<path fill="#787160" d="M449.266,292.73c-4.449,0-8.883-1.179-12.741-3.458c-0.262-0.155-0.349-0.493-0.194-0.755
				c0.156-0.263,0.493-0.348,0.756-0.195c5.395,3.188,11.971,4.126,18.041,2.573c0.293-0.074,0.596,0.103,0.671,0.397
				c0.075,0.295-0.102,0.596-0.397,0.671C453.39,292.477,451.326,292.73,449.266,292.73z"/>
		</g>
		<g id="XMLID_1590_">
			<path fill="#787160" d="M219.153,290.851c-6.418,0-12.622-3.588-15.819-9.154c-0.152-0.264-0.06-0.601,0.204-0.753
				c0.265-0.151,0.601-0.06,0.753,0.203c3.003,5.23,8.833,8.6,14.862,8.6c0.02,0,0.047,0.005,0.058,0
				c0.304,0,0.55,0.246,0.552,0.549C219.763,290.621,219.469,290.849,219.153,290.851z"/>
		</g>
		<g id="XMLID_1593_">
			<path fill="#787160" d="M326.684,305.741c-0.268,0-0.503-0.195-0.545-0.469c-0.046-0.3,0.16-0.581,0.462-0.628
				c29.648-4.526,45.227-35.669,55.535-56.277c0.137-0.271,0.467-0.384,0.74-0.246c0.272,0.137,0.383,0.467,0.246,0.74
				c-10.411,20.81-26.143,52.261-56.355,56.873C326.74,305.739,326.712,305.741,326.684,305.741z"/>
		</g>
		<g id="XMLID_1637_">
			<path fill="#787160" d="M329.156,162.024c-14.805,0-30.483-8.117-33.803-17.603c-0.1-0.287,0.051-0.602,0.339-0.703
				c0.29-0.099,0.603,0.052,0.703,0.339c3.231,9.231,18.857,17.163,33.433,16.859c0.311,0.02,0.556,0.237,0.561,0.542
				c0.005,0.305-0.237,0.556-0.542,0.561C329.617,162.023,329.386,162.024,329.156,162.024z"/>
		</g>
		<g id="XMLID_1638_">
			<path fill="#787160" d="M257.511,262.762c-0.14,0-0.28-0.053-0.387-0.158c-0.216-0.214-0.219-0.563-0.006-0.78
				c6.894-6.999,11.288-16.23,12.376-25.992c0.035-0.302,0.312-0.513,0.609-0.487c0.303,0.033,0.521,0.307,0.487,0.61
				c-1.115,10.007-5.62,19.469-12.686,26.643C257.795,262.707,257.653,262.762,257.511,262.762z"/>
		</g>
	</g>
	<g id="XMLID_103_">
		<g id="XMLID_24_">
			<path fill="#858789" d="M410.457,375.686H255.91c-8.303,0-15.035-6.731-15.035-15.035V249.728
				c0-8.303,6.731-15.035,15.035-15.035h154.547c8.303,0,15.035,6.731,15.035,15.035v110.923
				C425.492,368.955,418.76,375.686,410.457,375.686z"/>
			<path fill="#D2D4D5" d="M410.457,376.237H255.91c-8.594,0-15.586-6.992-15.586-15.586V249.729
				c0-8.594,6.992-15.586,15.586-15.586h154.547c8.594,0,15.586,6.993,15.586,15.586v110.922
				C426.043,369.245,419.051,376.237,410.457,376.237z M255.91,235.245c-7.986,0-14.484,6.497-14.484,14.483v110.922
				c0,7.987,6.497,14.484,14.484,14.484h154.547c7.986,0,14.483-6.497,14.483-14.484V249.729c0-7.986-6.497-14.483-14.483-14.483
				H255.91z"/>
		</g>
		<g id="XMLID_100_">
			<circle fill="#D2D4D5" cx="333.183" cy="305.19" r="12.803"/>
			<path fill="#858789" d="M333.183,318.545c-7.364,0-13.354-5.991-13.354-13.355c0-7.364,5.991-13.355,13.354-13.355
				c7.364,0,13.355,5.991,13.355,13.355C346.538,312.554,340.547,318.545,333.183,318.545z M333.183,292.938
				c-6.755,0-12.252,5.497-12.252,12.252c0,6.756,5.496,12.252,12.252,12.252c6.756,0,12.252-5.496,12.252-12.252
				C345.435,298.435,339.939,292.938,333.183,292.938z"/>
		</g>
	</g>
	<g id="XMLID_827_">
		<polygon fill="#FFFFFF" points="287.356,286.776 286.357,286.306 286.455,286.095 287.461,286.547 		"/>
	</g>
</g>
<g>
	<g>
		<path fill="#FFFFFF" d="M510.827,210.3c5.34,5.203,10.29,10.807,14.794,16.748c2.384,3.145,4.897,6.575,8.65,7.794
			c0.813,0.264,1.692,0.413,2.524,0.216c1.239-0.293,2.21-1.336,2.664-2.526c0.454-1.19,0.453-2.509,0.275-3.77
			c-0.138-0.972-0.385-1.948-0.91-2.777c-0.488-0.771-1.191-1.378-1.892-1.963c-4.875-4.068-10.209-7.707-14.163-12.795
			c0.712-0.555,1.431-1.118,1.996-1.822s0.971-1.575,0.953-2.478c-0.027-1.374-0.992-2.527-1.829-3.656
			c9.506-4.041,19.509-6.912,29.647-8.765c-2.502-4.226-4.584-8.685-6.662-13.135c-2.82-6.039-5.639-12.078-8.634-17.777
			c-6.061,6.874-13.604,12.248-21.075,17.557c-5.132,3.647-10.28,7.304-15.816,10.303c-2.953,1.6-6.271,3.287-7.452,6.43
			c-0.746,1.985-0.466,4.241,0.332,6.206c0.797,1.965,2.075,3.693,3.36,5.38c1.055,1.385,2.322,2.872,4.146,3.204
			C504.952,212.581,508.145,211.697,510.827,210.3z"/>
	</g>
	<g>
		<path fill="#FFFFFF" d="M550.333,167.946c1.881,5.056,4.218,9.943,6.973,14.582c1.52-0.352,2.658-1.697,3.172-3.171
			c0.514-1.474,0.503-3.073,0.441-4.632c-0.026-0.642-0.062-1.296-0.283-1.9c-0.197-0.537-0.532-1.011-0.873-1.47
			c-0.838-1.126-1.76-2.227-2.954-2.965C554.879,167.198,552.313,167.115,550.333,167.946z"/>
	</g>
	<g>
		<path fill="#ACD4F7" d="M553.304,195.033c-5.006-10.698-10.012-21.396-15.034-32.268c2.271-2.394,4.008-5.328,5.039-8.507
			c0,0,20.114,41.149,20.118,40.97C560.145,194.308,556.658,194.175,553.304,195.033z"/>
	</g>
	<g>
		<path d="M518.148,206.245c-0.185,0-0.362-0.099-0.455-0.272c-3.342-6.23-6.322-12.748-8.86-19.373
			c-0.084-0.219-0.01-0.467,0.18-0.603c2.055-1.477,4.198-2.969,6.27-4.411c11.956-8.321,24.319-16.926,27.457-28.014
			c0.058-0.206,0.237-0.354,0.45-0.374c0.21-0.019,0.416,0.095,0.51,0.287l20.398,41.633c0.126,0.256,0.02,0.565-0.236,0.69
			c-0.102,0.05-0.211,0.062-0.316,0.045c-0.13,0.097-0.303,0.131-0.468,0.078c-12.552-4.063-44.399,10.125-44.72,10.269
			C518.29,206.231,518.219,206.245,518.148,206.245z M509.939,186.602c2.433,6.308,5.27,12.514,8.437,18.461
			c4.004-1.763,31.825-13.679,44.401-10.297l-19.436-39.67c-3.762,10.836-15.806,19.218-27.468,27.335
			C513.912,183.797,511.889,185.206,509.939,186.602z"/>
	</g>
	<g>
		<path d="M553.06,194.69c-0.193,0-0.378-0.109-0.467-0.295l-14.453-30.497c-0.122-0.258-0.012-0.565,0.245-0.687
			c0.259-0.122,0.565-0.012,0.687,0.245l14.453,30.497c0.122,0.258,0.012,0.565-0.245,0.687
			C553.209,194.674,553.134,194.69,553.06,194.69z"/>
	</g>
	<g>
		<path d="M557.8,183.181c-0.158,0-0.314-0.073-0.415-0.209c-0.169-0.229-0.121-0.552,0.108-0.722
			c1.642-1.213,2.791-3.172,3.076-5.24c0.285-2.07-0.293-4.28-1.545-5.912c-0.609-0.794-1.379-1.479-2.288-2.037
			c-1.549-0.95-3.862-1.575-5.715-0.476c-0.245,0.145-0.561,0.065-0.707-0.18c-0.145-0.245-0.065-0.562,0.18-0.707
			c2.246-1.334,4.975-0.624,6.781,0.484c1.017,0.624,1.881,1.394,2.567,2.289c1.416,1.846,2.07,4.344,1.749,6.68
			c-0.322,2.338-1.625,4.554-3.485,5.929C558.014,183.148,557.906,183.181,557.8,183.181z"/>
	</g>
	<g>
		<path d="M503.066,213.296c-0.726,0-1.447-0.118-2.155-0.393c-2.089-0.812-3.424-2.739-4.718-4.81
			c-1.046-1.676-2.232-3.575-2.811-5.725c-0.651-2.42-0.366-4.782,0.782-6.479c0.92-1.361,2.346-2.239,3.492-2.943
			c3.689-2.269,7.361-4.501,11.712-6.845c0.251-0.135,0.564-0.042,0.699,0.209c0.135,0.251,0.041,0.564-0.209,0.699
			c-4.327,2.332-7.985,4.554-11.661,6.816c-1.062,0.653-2.382,1.466-3.178,2.643c-0.981,1.449-1.214,3.502-0.641,5.633
			c0.539,2.002,1.682,3.832,2.69,5.446c1.198,1.918,2.422,3.698,4.216,4.395c2.439,0.947,5.142-0.324,7.703-1.707
			c1.609-0.87,3.075-1.693,4.492-2.489c1.423-0.799,2.894-1.625,4.513-2.5c0.25-0.136,0.564-0.042,0.699,0.209
			c0.136,0.251,0.042,0.564-0.209,0.699c-1.611,0.871-3.079,1.695-4.498,2.493c-1.421,0.798-2.89,1.624-4.507,2.497
			C507.485,212.218,505.258,213.296,503.066,213.296z"/>
	</g>
	<g>
		<path d="M498.352,199.41c-0.175,0-0.346-0.089-0.442-0.25c-0.147-0.244-0.068-0.561,0.176-0.708
			c3.218-1.937,6.565-3.726,9.948-5.317c0.259-0.121,0.565-0.01,0.687,0.247c0.121,0.258,0.01,0.565-0.247,0.687
			c-3.352,1.576-6.668,3.348-9.856,5.267C498.534,199.387,498.442,199.41,498.352,199.41z"/>
	</g>
	<g>
		<path d="M500.583,203.492c-0.187,0-0.368-0.102-0.46-0.281c-0.13-0.254-0.029-0.564,0.225-0.694
			c3.32-1.698,6.714-3.349,10.09-4.91c0.257-0.12,0.565-0.007,0.685,0.252c0.12,0.259,0.007,0.565-0.252,0.685
			c-3.363,1.555-6.746,3.201-10.053,4.892C500.742,203.474,500.662,203.492,500.583,203.492z"/>
	</g>
	<g>
		<path d="M502.805,207.94c-0.178,0-0.352-0.093-0.447-0.258c-0.142-0.247-0.057-0.562,0.189-0.705
			c3.259-1.878,6.655-3.587,10.095-5.079c0.262-0.113,0.565,0.007,0.679,0.268c0.114,0.261-0.006,0.565-0.268,0.679
			c-3.404,1.477-6.765,3.168-9.99,5.027C502.981,207.918,502.892,207.94,502.805,207.94z"/>
	</g>
	<g>
		<path d="M560.154,165.871c-0.127,0-0.254-0.046-0.353-0.14c-0.208-0.195-0.218-0.522-0.023-0.729
			c2.951-3.139,4.852-7.262,5.352-11.608c0.033-0.283,0.29-0.486,0.572-0.454c0.283,0.033,0.486,0.289,0.454,0.572
			c-0.525,4.565-2.523,8.897-5.625,12.197C560.429,165.817,560.292,165.871,560.154,165.871z"/>
	</g>
	<g>
		<path d="M563.613,169.931c-0.157,0-0.313-0.072-0.414-0.208c-0.17-0.228-0.123-0.552,0.106-0.722
			c2.38-1.772,4.946-3.296,7.626-4.53c0.258-0.12,0.565-0.006,0.684,0.253c0.119,0.259,0.006,0.565-0.253,0.684
			c-2.615,1.204-5.119,2.691-7.442,4.42C563.828,169.898,563.72,169.931,563.613,169.931z"/>
	</g>
	<g>
		<path d="M577.786,176.414c-0.066,0-0.133-0.012-0.198-0.039c-3.737-1.552-7.831-2.133-11.836-1.683
			c-0.288,0.033-0.539-0.172-0.57-0.455c-0.032-0.283,0.172-0.539,0.455-0.57c4.181-0.471,8.451,0.137,12.348,1.755
			c0.263,0.11,0.388,0.412,0.279,0.675C578.18,176.294,577.988,176.414,577.786,176.414z"/>
	</g>
	<g>
		<path d="M547.831,192.917c-0.058,0-0.115-0.03-0.147-0.083l-4.112-6.777c-0.049-0.081-0.023-0.187,0.058-0.236
			c0.081-0.049,0.187-0.023,0.237,0.058l4.112,6.777c0.049,0.081,0.023,0.187-0.058,0.237
			C547.893,192.909,547.862,192.917,547.831,192.917z"/>
	</g>
	<g>
		<path d="M544.672,193.995c-0.057,0-0.114-0.029-0.146-0.082l-2.09-3.384c-0.05-0.081-0.025-0.187,0.056-0.237
			c0.081-0.049,0.187-0.025,0.237,0.056l2.09,3.384c0.05,0.081,0.025,0.187-0.056,0.237
			C544.734,193.986,544.703,193.995,544.672,193.995z"/>
	</g>
	<g>
		<path d="M541.164,195.54c-0.057,0-0.113-0.029-0.146-0.081l-1.585-2.536c-0.05-0.08-0.026-0.186,0.055-0.237
			c0.08-0.05,0.186-0.026,0.237,0.055l1.585,2.536c0.05,0.08,0.026,0.186-0.055,0.237
			C541.227,195.532,541.196,195.54,541.164,195.54z"/>
	</g>
	<g>
		<path d="M537.251,196.599c-0.058,0-0.116-0.03-0.148-0.084l-1.158-1.956c-0.049-0.082-0.022-0.187,0.06-0.236
			c0.081-0.048,0.187-0.022,0.235,0.06l1.159,1.956c0.048,0.082,0.021,0.187-0.06,0.236
			C537.311,196.591,537.28,196.599,537.251,196.599z"/>
	</g>
	<g opacity="0.1294">
		<path d="M561.249,175.438c-0.192-0.59-1.02-0.75-1.448-0.316c-0.256,0.24-0.266,0.61-0.394,0.92
			c-0.326,1.113-1.143,2.399-1.8,3.059c-0.749,0.826-0.585,0.36-1.26,1.142c-0.693,1.171,0.841,2.391,1.823,1.449
			c1.749-1.351,2.122-2.655,2.819-4.265c0.158-0.462,0.279-0.944,0.301-1.433C561.322,175.805,561.344,175.612,561.249,175.438z"/>
	</g>
</g>
</svg>
