<?xml version="1.0" encoding="utf-8"?>
<!-- Generator: Adobe Illustrator 17.0.0, SVG Export Plug-In . SVG Version: 6.00 Build 0)  -->
<!DOCTYPE svg PUBLIC "-//W3C//DTD SVG 1.1//EN" "http://www.w3.org/Graphics/SVG/1.1/DTD/svg11.dtd">
<svg version="1.1" id="Calque_1" xmlns="http://www.w3.org/2000/svg" xmlns:xlink="http://www.w3.org/1999/xlink" x="0px" y="0px"
	 width="1280px" height="800px" viewBox="0 0 1280 800" enable-background="new 0 0 1280 800" xml:space="preserve">
<g id="XMLID_1641_">
	<path id="XMLID_1628_" opacity="0.5" fill="#E0DFEA" d="M282.609,801c-307.363,0-309.803-65.012,0-65.012
		C589.972,735.988,592.412,801,282.609,801z"/>
	<g id="XMLID_1627_">
		<path fill="#514342" d="M290.571,642.33c64.684,20.389,35.183,102.761-26.293,95.564c-34.311-4.017-201.51-63.243-219.481-88.32
			c-6.175-8.617-7.263-20.936-1.729-29.98c8.3-13.564,21.875-10.945,34.837-8.949C79.843,610.943,238.397,625.884,290.571,642.33z"
			/>
		<path fill="#463C3A" d="M271.774,739.014c-2.463,0-4.987-0.145-7.574-0.448c-35.487-4.155-202.172-63.788-219.952-88.597
			c-6.529-9.111-7.251-21.748-1.756-30.729c8.259-13.498,21.459-11.446,34.221-9.464l1.294,0.201
			c0.156,0.024,1.628,0.172,3.858,0.398c60.206,6.078,167.407,18.228,208.908,31.31c32.793,10.336,39.785,35.767,35.809,54.403
			C321.943,717.83,301.486,739.014,271.774,739.014z M63.12,609.708c-7.575,0-14.527,2.148-19.477,10.24
			c-5.219,8.529-4.519,20.55,1.702,29.23c17.654,24.635,183.647,83.903,219.011,88.043c32.993,3.866,56.006-18.455,60.905-41.417
			c4.043-18.948-3-42.777-34.892-52.831c-41.388-13.045-148.484-25.181-208.64-31.253c-2.661-0.27-3.748-0.379-3.927-0.407
			l-1.296-0.201C72.014,610.415,67.464,609.708,63.12,609.708z"/>
	</g>
	<g id="XMLID_1626_">
		<path fill="#514342" d="M275.191,638.51c-64.684,20.389-35.183,102.761,26.293,95.564c34.311-4.017,201.51-63.243,219.482-88.32
			c6.175-8.617,7.263-20.936,1.729-29.98c-8.299-13.564-21.875-10.945-34.837-8.949C485.92,607.123,327.365,622.064,275.191,638.51z
			"/>
		<path fill="#463C3A" d="M293.989,735.194c-29.716,0-50.169-21.183-54.809-42.926c-3.976-18.637,3.016-44.067,35.808-54.403
			c41.502-13.082,148.702-25.232,208.909-31.31c2.23-0.226,3.702-0.374,3.859-0.398l1.294-0.201
			c12.763-1.983,25.963-4.032,34.222,9.464c5.495,8.981,4.773,21.617-1.757,30.729c-17.78,24.809-184.465,84.442-219.951,88.597
			C298.979,735.048,296.45,735.194,293.989,735.194z M275.191,638.509l0.203,0.645c-31.893,10.053-38.936,33.882-34.893,52.831
			c4.899,22.961,27.918,45.292,60.906,41.416c35.364-4.139,201.357-63.408,219.011-88.043c6.221-8.681,6.922-20.702,1.702-29.23
			c-7.789-12.729-20.535-10.748-32.863-8.835l-1.296,0.201c-0.179,0.028-1.267,0.137-3.928,0.407
			c-60.156,6.072-167.252,18.208-208.64,31.253L275.191,638.509z"/>
	</g>
	<g id="XMLID_1625_">
		<path fill="#514342" d="M380.009,717.402c-77.314,19.965-122.554,20.245-197.651,0c5.731-61.813,5.344-100.902,20.889-158.281
			l153.903,6.943C375.419,624.469,375.638,659.912,380.009,717.402z"/>
		<path fill="#463C3A" d="M279.948,733.249c-30.305,0-60.188-5.064-97.766-15.195l-0.549-0.148l0.052-0.567
			c1.328-14.32,2.317-27.28,3.273-39.813c3.172-41.588,5.678-74.439,17.637-118.582l0.142-0.523l0.54,0.025l154.376,6.964
			l0.141,0.452c15.788,50.472,18.086,83.4,21.267,128.971c0.501,7.169,1.022,14.636,1.621,22.517l0.043,0.566l-0.547,0.141
			C340.963,728.184,310.245,733.249,279.948,733.249z M183.083,716.897c74.375,19.991,118.566,19.989,196.211-0.009
			c-0.582-7.677-1.09-14.959-1.579-21.959c-3.165-45.344-5.454-78.144-21.068-128.21l-152.889-6.897
			c-11.805,43.758-14.298,76.455-17.452,117.808C185.36,690.003,184.385,702.792,183.083,716.897z"/>
	</g>
	<g id="XMLID_1618_">
		<g id="XMLID_1624_">
			<path fill="#323D4E" d="M290.663,670.361c-0.322,0-0.608-0.231-0.665-0.56c-6.365-36.695-13.579-78.288-4.629-117.342
				c0.084-0.363,0.446-0.591,0.809-0.507c0.363,0.083,0.591,0.447,0.507,0.811c-8.89,38.787-1.7,80.237,4.643,116.805
				c0.064,0.369-0.183,0.719-0.55,0.782C290.74,670.358,290.701,670.361,290.663,670.361z"/>
		</g>
		<g id="XMLID_1623_">
			<path fill="#323D4E" d="M284.911,634.425c-0.154,0-0.309-0.053-0.436-0.16c-22.527-19.097-21.897-25.417-15.873-85.864
				c0.037-0.371,0.37-0.646,0.739-0.605c0.371,0.037,0.642,0.367,0.605,0.74c-5.959,59.806-6.583,66.058,15.402,84.696
				c0.284,0.242,0.32,0.668,0.079,0.954C285.292,634.343,285.102,634.425,284.911,634.425z"/>
		</g>
		<g id="XMLID_1622_">
			<path fill="#323D4E" d="M192.837,608.407c-0.283,0-0.546-0.178-0.64-0.462c-0.118-0.354,0.073-0.737,0.426-0.856
				c22.068-7.39,26.66-8.928,37.459-54.748c0.086-0.362,0.451-0.593,0.812-0.502c0.363,0.086,0.588,0.449,0.502,0.814
				c-10.972,46.554-15.688,48.133-38.345,55.72C192.98,608.396,192.908,608.407,192.837,608.407z"/>
		</g>
		<g id="XMLID_1621_">
			<path fill="#323D4E" d="M192.837,608.407c-0.283,0-0.546-0.178-0.64-0.462c-0.118-0.354,0.073-0.737,0.426-0.856
				c22.068-7.39,26.66-8.928,37.459-54.748c0.086-0.362,0.451-0.593,0.812-0.502c0.363,0.086,0.588,0.449,0.502,0.814
				c-10.972,46.554-15.688,48.133-38.345,55.72C192.98,608.396,192.908,608.407,192.837,608.407z"/>
		</g>
		<g id="XMLID_1620_">
			<path fill="#323D4E" d="M368.391,609.698c-0.071,0-0.143-0.011-0.214-0.034l-0.867-0.291
				c-21.898-7.326-26.455-8.851-37.256-54.674c-0.086-0.365,0.139-0.728,0.503-0.814c0.359-0.091,0.726,0.138,0.812,0.502
				c10.627,45.091,14.558,46.406,36.368,53.703l0.868,0.289c0.353,0.119,0.544,0.502,0.426,0.856
				C368.937,609.519,368.674,609.698,368.391,609.698z"/>
		</g>
	</g>
	<g id="XMLID_1606_">
		<g id="XMLID_1608_">
			<path fill="#FFFFF6" d="M314.826,728.905c-2.843,12.025-2.323,24.83,1.488,36.585c-46.491,2.699-152.339,25.378-155.19,7.132
				c-0.591-3.779-1.189-2.256,78.908-44.184c13.599-7.118,21.158-3.372,23.125,10.461
				C263.886,744.022,309.942,730.573,314.826,728.905z"/>
			<path fill="#EDE3D7" d="M184.742,780.327c-14.104,0-23.415-2.036-24.285-7.601c-0.537-3.392-0.537-3.392,35.979-22.341
				c10.846-5.628,24.951-12.948,43.285-22.546c7.125-3.729,12.801-4.558,16.874-2.468c3.81,1.958,6.243,6.477,7.232,13.435
				c0.003,0.021,0.012,0.084,0.167,0.18c4.403,2.71,43.755-8.376,50.615-10.721l1.157-0.395l-0.282,1.192
				c-2.832,11.982-2.323,24.507,1.473,36.22l0.27,0.834l-0.874,0.05c-14.227,0.826-33.918,3.512-54.766,6.356
				C233.256,776.386,204.362,780.327,184.742,780.327z M251.589,725.595c-3.102,0-6.863,1.15-11.244,3.443
				c-18.335,9.598-32.442,16.919-43.289,22.547c-34.984,18.155-35.643,18.544-35.282,20.823c1.893,12.105,53.82,5.021,99.63-1.229
				c20.455-2.79,39.799-5.429,54.003-6.314c-3.513-11.328-4.03-23.369-1.503-34.955c-7.684,2.392-45.534,13.345-50.618,10.228
				c-0.575-0.354-0.751-0.817-0.798-1.143c-0.924-6.497-3.114-10.676-6.511-12.421C254.706,725.922,253.241,725.595,251.589,725.595
				z"/>
		</g>
		<g id="XMLID_1607_">
			<path fill="#EDE3D7" d="M194.809,773.544c-0.371,0-0.674-0.301-0.675-0.673c-0.002-0.374,0.298-0.679,0.672-0.68
				c20.46-0.1,40.973-2.347,60.969-6.675c0.367-0.08,0.724,0.152,0.803,0.518c0.078,0.364-0.153,0.725-0.518,0.803
				c-20.087,4.35-40.694,6.606-61.247,6.707C194.811,773.544,194.81,773.544,194.809,773.544z"/>
		</g>
	</g>
	<g id="XMLID_1605_">
		<path fill="#514342" d="M526.226,702.683c64.991-29.669,23.551-111.964-39.786-96.499
			c-35.349,8.631-202.503,92.14-218.061,120.676c-5.346,9.805-4.898,22.823,2.051,31.563c10.422,13.107,24.275,8.615,37.568,4.854
			C309.986,762.714,473.804,726.614,526.226,702.683z"/>
		<path fill="#463C3A" d="M288.297,767.867c-6.656,0-12.961-2.189-18.395-9.023c-6.892-8.668-7.762-21.953-2.115-32.308
			c15.39-28.227,181.937-112.083,218.495-121.008c34.789-8.499,62.358,12.373,70.635,36.32c6.55,18.954,2.517,46.419-30.41,61.451
			c-41.669,19.021-152.144,45.571-214.289,59.703c-2.333,0.53-3.875,0.881-4.034,0.926l-1.329,0.377
			C300.639,766.071,294.325,767.867,288.297,767.867z M501.925,604.95c-4.909,0-10.029,0.599-15.325,1.891
			c-36.437,8.897-202.342,92.306-217.628,120.342c-5.393,9.891-4.577,22.563,1.986,30.817c9.796,12.319,22.878,8.599,35.526,5.002
			l1.331-0.378c0.183-0.052,1.32-0.311,4.103-0.943c62.095-14.12,172.47-40.642,214.027-59.614l0.28,0.616l-0.28-0.616
			c32.067-14.638,36.365-40.477,29.694-59.775C548.815,622.548,528.542,604.95,501.925,604.95z"/>
	</g>
	<g id="XMLID_1602_">
		<g id="XMLID_1604_">
			<path fill="#FFFFF6" d="M255.88,726.911c2.894,12.013,2.427,24.821-1.333,36.591c46.502,2.502,152.444,24.733,155.218,6.475
				c0.575-3.782,1.179-2.261-79.094-43.849c-13.629-7.061-21.172-3.283-23.081,10.56
				C306.884,741.812,260.771,728.559,255.88,726.911z"/>
			<path fill="#EDE3D7" d="M385.393,777.764c-19.603,0-48.116-3.767-76.083-7.461c-20.862-2.756-40.568-5.359-54.799-6.125
				l-0.874-0.046l0.267-0.835c3.747-11.729,4.203-24.256,1.32-36.226l-0.287-1.191l1.158,0.391
				c6.871,2.313,46.279,13.219,50.66,10.506c0.155-0.096,0.163-0.16,0.167-0.181c0.96-6.96,3.374-11.491,7.175-13.464
				c4.065-2.111,9.745-1.304,16.885,2.396c18.374,9.52,32.51,16.78,43.379,22.362c36.596,18.795,36.596,18.795,36.089,22.084
				C409.58,775.69,399.94,777.764,385.393,777.764z M255.45,762.875c14.21,0.826,33.567,3.383,54.037,6.087
				c45.835,6.054,97.787,12.917,99.611,0.913c0.368-2.389-0.293-2.775-35.354-20.782c-10.87-5.582-25.008-12.844-43.383-22.364
				c-6.729-3.487-11.991-4.29-15.643-2.397c-3.39,1.759-5.563,5.947-6.459,12.448c-0.045,0.326-0.219,0.789-0.793,1.146
				c-5.067,3.141-42.967-7.656-50.661-10.013C259.382,739.488,258.916,751.532,255.45,762.875z"/>
		</g>
		<g id="XMLID_1603_">
			<path fill="#EDE3D7" d="M376.081,771.043c-20.551-0.014-41.168-2.184-61.275-6.448c-0.365-0.078-0.598-0.436-0.521-0.802
				c0.077-0.366,0.434-0.595,0.801-0.522c20.017,4.245,40.54,6.404,60.997,6.419c0.372,0,0.675,0.304,0.675,0.676
				C376.756,770.74,376.454,771.043,376.081,771.043z"/>
		</g>
	</g>
	<g id="XMLID_1601_">
		<path fill="#514342" d="M44.49,707.151c-65.094-29.441-23.942-111.881,39.449-96.638c35.379,8.507,202.824,91.429,218.482,119.91
			c5.38,9.786,4.977,22.806-1.941,31.569c-10.376,13.144-24.245,8.7-37.551,4.986C260.939,766.423,96.996,730.898,44.49,707.151z"/>
		<path fill="#463C3A" d="M282.539,771.5c-5.996,0-12.279-1.763-18.463-3.497l-1.329-0.372c-0.159-0.044-1.691-0.387-4.009-0.905
			C196.54,752.811,85.962,726.65,44.213,707.767c-32.979-14.916-37.109-42.366-30.625-61.342
			c8.194-23.977,35.692-44.939,70.508-36.57c36.589,8.797,203.428,92.068,218.916,120.242c5.682,10.335,4.859,23.624-2.003,32.315
			C295.571,769.302,289.233,771.5,282.539,771.5z M68.662,609.333c-26.726,0-47.023,17.709-53.796,37.531
			c-6.602,19.322-2.214,45.145,29.903,59.67c41.639,18.833,152.116,44.968,214.263,58.87c2.765,0.62,3.895,0.872,4.078,0.924
			l1.331,0.372c12.662,3.552,25.756,7.226,35.51-5.128c6.533-8.275,7.306-20.95,1.879-30.823
			c-15.384-27.984-181.58-110.81-218.048-119.578C78.559,609.916,73.505,609.333,68.662,609.333z"/>
	</g>
	<g id="XMLID_1553_">
		<path id="XMLID_1600_" fill="#F9A587" d="M253.805,327.656c0.281,23.026,7.895,40.101-34.378,60.028
			c25.162,34.679,49.943,47.493,49.943,47.493s53.015-23.907,71.232-39.725c-9.479-6.909-19.374-12.072-28.117-18.226
			c-17.27-12.157-7.081-39.169-10.453-49.143L253.805,327.656z"/>
		<path id="XMLID_1599_" fill="#EA795C" d="M306.865,371.527c-4.654-6.845-4.942-14.715-4.655-25.624
			c-22.195,15.716-32.862,8.498-46.864-1.806C275.428,373.145,287.248,362.45,306.865,371.527z"/>
		<path id="XMLID_1594_" fill="#F9A587" d="M295.456,352.395c12.097-3.866,31.742-39.079,24.366-82.455
			c-7.437-43.729-55.994-48.962-75.26-19.462C226.019,278.872,238.015,370.753,295.456,352.395z"/>
		<path id="XMLID_1540_" fill="#30323E" d="M261.702,263.27c7.973-1.615,17.418-12.387,25.831-7.027
			c14.777,9.413,30.39,16.452,31.134,57.36c8.817-34.813,6.787-26.755,14.132-33.155c11.567-10.081-4.885-28.031-7.613-36.888
			c-2.637-8.563-0.248-19.882-18.606-25.926c-5.82-1.916-7.185-0.658-11.253,0.482c-21.33,5.981-44.615-24.342-60.79,9.392
			c-3.563,7.431-1.798,8.145-0.621,13.601c2.597,12.028-9.013,22.546-10.547,34.755c-0.657,5.227,16.316,36.755,16.316,36.755
			s-0.09-14.396,0.312-17.356C244.885,259.266,254.834,264.662,261.702,263.27z"/>
		<g id="XMLID_1584_">
			<g id="XMLID_1591_">
				<path id="XMLID_1592_" fill="#F9A587" d="M325.602,289.222c-8.416-2.104-8.219,15.362-7.882,24.021
					C318.385,330.312,338.858,292.535,325.602,289.222z"/>
			</g>
			<g id="XMLID_1587_">
				<path id="XMLID_1588_" fill="#F9A587" d="M232.764,292.838c8.214-2.794,9.46,14.627,9.84,23.284
					C243.351,333.189,219.827,297.239,232.764,292.838z"/>
			</g>
		</g>
		<g id="XMLID_1574_">
			<path id="XMLID_1582_" fill="#30323E" d="M288.746,282.394c0.632,0.329,21.637,1.886,21.972,1.775
				c5.081-1.686-12.864-8.872-21.693-5.006C287.899,279.656,287.596,281.796,288.746,282.394z"/>
			<path id="XMLID_1577_" fill="#30323E" d="M268.454,278.526c-8.967-3.535-25.683,4.572-21.434,6.024
				C252.637,284.55,276.405,281.661,268.454,278.526z"/>
			<g id="XMLID_1576_">
				<path fill="#EA795C" d="M279.157,317.595c-0.565,0-1.209-0.104-1.984-0.385c-2.844-1.032-2.013-5.015-0.961-10.057
					c0.685-3.283,1.461-7.003,1.298-10.381c-0.018-0.373,0.27-0.69,0.642-0.708c0.346-0.036,0.688,0.27,0.707,0.643
					c0.171,3.551-0.625,7.361-1.326,10.723c-0.882,4.227-1.643,7.877,0.099,8.508c1.475,0.535,2.209,0.279,3.228-0.076
					c0.729-0.254,1.557-0.542,2.728-0.542c0.373,0,0.675,0.303,0.675,0.676c0,0.374-0.302,0.676-0.675,0.676
					c-0.943,0-1.595,0.227-2.284,0.466C280.657,317.365,279.995,317.595,279.157,317.595z"/>
			</g>
			<path id="XMLID_293_" fill="#FFFFFF" d="M288.109,328.837c0.551-0.319,1.489-0.087,1.424,0.547
				c-0.478,4.72-3.611,9.875-5.944,11.282c-6.915,4.17-14.363-10.158-9.34-10.106C276.843,330.588,282.904,331.857,288.109,328.837z
				"/>
		</g>
		<g id="XMLID_1543_">
			<path fill="#EA795C" d="M321.745,310.009c-0.125,0-0.252-0.035-0.365-0.107c-0.314-0.202-0.404-0.62-0.202-0.935
				c2.273-3.54,2.809-8.201,1.398-12.166c-0.125-0.352,0.058-0.739,0.409-0.865c0.352-0.125,0.737,0.058,0.863,0.41
				c1.548,4.351,0.96,9.467-1.535,13.352C322.185,309.9,321.967,310.009,321.745,310.009z"/>
		</g>
		<g id="XMLID_1544_">
			<path fill="#EA795C" d="M238.445,313.244c-0.185,0-0.369-0.076-0.502-0.225c-3.079-3.439-4.47-8.397-3.63-12.938
				c0.067-0.369,0.418-0.616,0.787-0.542c0.367,0.068,0.609,0.421,0.541,0.788c-0.765,4.139,0.503,8.656,3.307,11.789
				c0.249,0.278,0.226,0.706-0.051,0.955C238.767,313.187,238.606,313.244,238.445,313.244z"/>
		</g>
		<g id="XMLID_1568_">
			<g id="XMLID_1556_">
				<path fill="#353B4A" d="M283.596,250.644c-0.1,0-0.201-0.022-0.296-0.069c-0.335-0.165-0.473-0.57-0.309-0.905
					c3.495-7.141,4.611-16.146,3.316-26.767c-0.045-0.37,0.218-0.708,0.588-0.753c0.369-0.055,0.707,0.218,0.752,0.589
					c1.328,10.885,0.17,20.147-3.444,27.527C284.086,250.505,283.846,250.644,283.596,250.644z"/>
			</g>
			<g id="XMLID_1557_">
				<path fill="#353B4A" d="M310.051,225.823c-0.147,0-0.293-0.047-0.418-0.145c-7.598-5.997-14.549-2.602-18.016-0.044
					c-0.301,0.221-0.724,0.157-0.944-0.144c-0.222-0.301-0.158-0.724,0.143-0.946c6.424-4.739,13.588-4.714,19.653,0.072
					c0.293,0.231,0.343,0.656,0.112,0.95C310.448,225.734,310.25,225.823,310.051,225.823z"/>
			</g>
			<g id="XMLID_1558_">
				<path fill="#353B4A" d="M304.67,238.583c-2.219,0-9.32-0.339-13.167-4.48c-0.254-0.274-0.239-0.702,0.034-0.957
					c0.274-0.254,0.701-0.239,0.955,0.034c4.072,4.383,12.697,4.043,12.784,4.038c0.407-0.014,0.689,0.272,0.706,0.645
					c0.017,0.373-0.271,0.69-0.643,0.707C305.283,238.573,305.047,238.583,304.67,238.583z"/>
			</g>
			<g id="XMLID_1559_">
				<path fill="#353B4A" d="M305.399,263.012c-0.137,0-0.274-0.042-0.394-0.127c-5.198-3.743-7.111-7.366-8.649-10.276
					c-1.722-3.262-2.861-5.417-7.594-6.256c-0.367-0.065-0.613-0.415-0.547-0.783c0.064-0.368,0.412-0.614,0.782-0.548
					c5.383,0.953,6.782,3.602,8.554,6.954c1.471,2.786,3.302,6.252,8.243,9.811c0.303,0.218,0.372,0.641,0.154,0.944
					C305.816,262.914,305.61,263.012,305.399,263.012z"/>
			</g>
			<g id="XMLID_1560_">
				<path fill="#353B4A" d="M279.55,223.522c-4.085,0-8.248-1.415-12.047-2.707c-5.635-1.914-10.5-3.569-13.407-0.277
					c-0.246,0.281-0.673,0.307-0.953,0.059c-0.28-0.247-0.306-0.674-0.059-0.955c3.498-3.97,9.015-2.095,14.853-0.108
					c5.065,1.721,10.806,3.671,15.863,1.981c0.358-0.121,0.737,0.074,0.855,0.427c0.118,0.355-0.073,0.738-0.426,0.856
					C282.699,223.31,281.13,223.522,279.55,223.522z"/>
			</g>
			<g id="XMLID_1562_">
				<path fill="#353B4A" d="M271.739,236.289c-0.133,0-0.268-0.04-0.386-0.121c-0.306-0.214-0.381-0.636-0.168-0.942
					c2.709-3.884,7.811-2.564,11.415-1.231c0.349,0.129,0.528,0.519,0.4,0.869c-0.13,0.35-0.518,0.531-0.868,0.4
					c-5.127-1.897-8.163-1.669-9.839,0.736C272.162,236.188,271.952,236.289,271.739,236.289z"/>
			</g>
			<g id="XMLID_1563_">
				<path fill="#353B4A" d="M259.969,256.606c-0.216,0-0.427-0.103-0.558-0.294c-0.211-0.308-0.132-0.729,0.175-0.941
					c4.628-3.176,6.947-3.384,8.995-3.569c2.49-0.224,4.641-0.417,10.993-6.526c0.268-0.257,0.697-0.25,0.955,0.02
					c0.258,0.27,0.25,0.698-0.02,0.957c-6.694,6.438-9.178,6.661-11.808,6.898c-1.975,0.178-4.015,0.361-8.351,3.338
					C260.233,256.567,260.1,256.606,259.969,256.606z"/>
			</g>
			<g id="XMLID_1564_">
				<path fill="#353B4A" d="M238.401,291.954c-0.281,0-0.544-0.177-0.639-0.458c-0.892-2.626-3.222-4.679-5.936-5.229
					c-0.366-0.075-0.602-0.431-0.528-0.798c0.075-0.366,0.428-0.608,0.796-0.529c3.176,0.645,5.902,3.047,6.946,6.12
					c0.121,0.353-0.069,0.738-0.421,0.858C238.547,291.942,238.473,291.954,238.401,291.954z"/>
			</g>
			<g id="XMLID_1565_">
				<path fill="#353B4A" d="M318.197,288.635c-0.029,0-0.059-0.002-0.089-0.006c-0.37-0.049-0.63-0.388-0.581-0.759
					c0.479-3.635,4.521-4.96,6.692-5.671c0.355-0.117,0.737,0.079,0.851,0.433c0.116,0.355-0.077,0.736-0.432,0.853
					c-2.614,0.857-5.433,1.987-5.773,4.562C318.821,288.387,318.531,288.635,318.197,288.635z"/>
			</g>
			<g id="XMLID_1566_">
				<path fill="#353B4A" d="M232.355,269.872c-0.051,0-0.104-0.006-0.156-0.018c-0.363-0.086-0.588-0.45-0.503-0.814
					c1.134-4.827,3.169-7.576,4.965-10.001c3.094-4.178,5.538-7.478,2.712-19.512c-1.03-4.387-1.57-8.653,3.076-12.59
					c0.285-0.241,0.711-0.206,0.951,0.08c0.241,0.285,0.205,0.712-0.08,0.953c-3.718,3.151-3.804,6.26-2.632,11.247
					c2.969,12.644,0.23,16.344-2.943,20.628c-1.802,2.433-3.665,4.949-4.735,9.505C232.939,269.663,232.661,269.872,232.355,269.872
					z"/>
			</g>
			<g id="XMLID_1567_">
				<path fill="#353B4A" d="M330.552,272.701c-0.094,0-0.189-0.02-0.28-0.061c-0.339-0.155-0.488-0.556-0.333-0.897
					c1.913-4.196,1.127-9.546-1.912-13.012c-1.318-1.502-2.772-2.579-4.178-3.622c-3.617-2.68-7.035-5.212-6.524-13.952
					c0.022-0.373,0.324-0.658,0.714-0.636c0.372,0.022,0.656,0.342,0.634,0.715c-0.467,8.008,2.378,10.116,5.979,12.785
					c1.464,1.084,2.977,2.205,4.39,3.816c3.379,3.854,4.253,9.803,2.125,14.468C331.053,272.555,330.808,272.701,330.552,272.701z"
					/>
			</g>
		</g>
		<path id="XMLID_67_" fill="#382823" d="M257.68,302.274c-2.55-0.182-3.853-10.04,2.333-9.597
			C263.316,292.913,261.854,302.572,257.68,302.274z"/>
		<path id="XMLID_68_" fill="#382823" d="M297.744,302.274c-2.55-0.182-3.853-10.04,2.333-9.597
			C303.38,292.913,301.917,302.572,297.744,302.274z"/>
	</g>
	<g id="XMLID_1542_">
		<path fill="#8A9077" d="M242.578,376.318c16.26,18.288,47.215,30.715,68.519,2.805c1.687-2.21-0.191-2.858,46.956,14.383
			c20.981,179.23,29.715,225.348,12.536,227.033c-63.723,6.249-139.849,34.049-179.993,3.189
			c-23.254-17.876-5.181-214.796,1.722-230.357C242.064,374.151,240.413,373.883,242.578,376.318z"/>
		<path fill="#787160" d="M242.965,638.63c-20.532,0-38.879-3.679-52.78-14.365c-13.539-10.406-12.523-77.529-10.712-116.614
			c2.493-53.807,8.727-106.664,12.228-114.554l0.114-0.256l0.26-0.1c10.834-4.186,19.229-7.473,25.757-10.029
			c23.264-9.108,23.266-9.109,25.122-6.989l0.128,0.144c8.482,9.54,23.214,19.532,39.044,18.929
			c11.036-0.413,20.603-5.825,28.434-16.084l0.168-0.229c1.714-2.373,1.71-2.378,45.638,13.687l2.308,0.844l0.048,0.414
			c3.248,27.75,6.206,52.325,8.814,74.008c12.307,102.29,16.912,140.563,8.722,150.779c-1.434,1.789-3.268,2.77-5.605,3
			c-17.191,1.684-35.578,4.994-53.36,8.194C291.904,633.977,266.053,638.63,242.965,638.63z M192.829,393.9
			c-3.454,8.594-9.614,62.173-12.007,113.813c-3.061,66.061,0.652,108.151,10.184,115.479
			c29.061,22.337,78.367,13.466,126.049,4.885c17.809-3.205,36.223-6.519,53.467-8.21c1.958-0.192,3.49-1.009,4.685-2.499
			c7.833-9.772,2.903-50.755-9.011-149.771c-2.596-21.575-5.536-46.013-8.766-73.597l-1.526-0.558
			c-40.54-14.827-42.965-15.712-44.081-14.165l-0.191,0.258c-8.087,10.595-17.998,16.185-29.456,16.614
			c-16.342,0.6-31.417-9.61-40.104-19.381l-0.134-0.152c-1.207-1.378-1.652-1.242-23.615,7.357
			C211.848,386.508,203.535,389.762,192.829,393.9z"/>
	</g>
	<g id="XMLID_1549_">
		<g id="XMLID_1551_">
			<path id="XMLID_1552_" fill="#EA795C" d="M268.316,611.539c-2.448-2.545,2.924-6.168,4.725-1.913
				c0.592,1.398,0.204,3.082-0.721,4.285c3.316,0.67,4.308-5.508,7.583-5.199c6.202,0.585,1.366,31.383-16.85,27.993
				c-3.894-0.725-1.584-3.864-0.789-6.515C267.607,612.376,256.436,602.365,268.316,611.539z"/>
		</g>
		<path id="XMLID_1550_" fill="#F9A587" d="M189.102,620.758l5.779-20.13l41.556,13.945c17.36-1.712,27.12-9.325,39.07,0.374
			c0.906,0.735,0.885,2.197-0.126,2.781c-4.298,2.481-8.461,0.517-10.303,0.246c-7.675-1.131-18.239,11.036-4.167,15.567
			c19.833,6.385,20.687-17.796,26.587-20.022c5.332-2.012,3.647,8.277-5.232,22.884c-5.019,8.257-6.2,3.897-17.652,8.173
			c-3.313,1.237-4.114,1.387-7.218-0.088C227.685,630.369,237.344,634.141,189.102,620.758z"/>
	</g>
	<g id="XMLID_1633_">
		<path fill="#8A9077" d="M75.287,561.113c-20.737,31.534,3.195,44.403,22.501,50.218c25.47,7.67,131.56,33.691,135.717,22.482
			c7.498-20.218,8.548-23.822,4.261-26.221c-104.617-58.547-118.477-22.134-57.221-83.498c6.909-6.921,11.402-15.879,12.855-25.558
			c5.539-36.9,9.896-109.405-1.083-105.163C164.801,404.004,132.261,474.475,75.287,561.113z"/>
		<path fill="#787160" d="M222.885,637.134c-29.892,0-109.355-20.357-125.292-25.157c-16.336-4.919-26.322-12.119-29.685-21.399
			c-3.018-8.332-0.725-18.371,6.815-29.838c18.273-27.786,34.025-53.898,47.922-76.936c29.333-48.625,50.525-83.759,69.43-91.062
			c1.056-0.41,2.076-0.252,2.948,0.447c8.588,6.9,3.874,73.277-0.955,105.448c-1.487,9.907-5.999,18.875-13.046,25.935
			c-7.905,7.92-14.573,14.223-19.929,19.288c-11.314,10.697-16.993,16.067-16.281,19.513c0.655,3.164,6.996,5.467,18.506,9.649
			c14.982,5.442,40.059,14.551,74.777,33.98c4.86,2.721,3.46,7.048-3.958,27.047C233.333,636.219,229.22,637.134,222.885,637.134z
			 M75.851,561.485c-7.293,11.09-9.538,20.723-6.673,28.632c3.209,8.856,12.899,15.776,28.804,20.566
			c33.156,9.986,131.297,32.578,134.889,22.895c7.396-19.943,8.311-23.298,4.565-25.395c-34.624-19.376-59.635-28.461-74.579-33.89
			c-12.358-4.488-18.56-6.741-19.368-10.647c-0.866-4.186,4.631-9.382,16.676-20.771c5.351-5.058,12.01-11.355,19.902-19.26
			c6.842-6.854,11.221-15.561,12.665-25.18c5.551-36.982,8.673-98.385,1.446-104.191c-0.497-0.4-1.01-0.476-1.618-0.241
			c-18.473,7.138-39.566,42.104-68.76,90.499C109.897,507.552,94.138,533.675,75.851,561.485L75.851,561.485z"/>
	</g>
	<g id="XMLID_1545_">
		<g id="XMLID_1547_">
			<path id="XMLID_1548_" fill="#EA795C" d="M280.498,610.102c2.317-2.665-3.23-6.013-4.816-1.672
				c-0.521,1.426-0.049,3.088,0.935,4.243c-3.278,0.837-4.579-5.284-7.834-4.81c-6.165,0.897,0.213,31.412,18.235,27.107
				c3.853-0.92,1.388-3.939,0.461-6.546C281.248,610.902,291.902,600.34,280.498,610.102z"/>
		</g>
		<path id="XMLID_1546_" fill="#F9A587" d="M360.075,615.313l-6.784-19.813l-40.802,16.023c-17.424-0.834-27.554-7.945-39.002,2.344
			c-0.868,0.78-0.773,2.239,0.265,2.771c4.418,2.261,8.476,0.09,10.302-0.274c7.609-1.516,18.771,10.102,4.944,15.337
			c-19.486,7.377-21.555-16.73-27.559-18.656c-5.427-1.74-3.227,8.45,6.376,22.591c5.428,7.993,6.388,3.579,18.04,7.272
			c3.371,1.068,4.179,1.178,7.204-0.452C322.024,626.858,312.566,631.113,360.075,615.313z"/>
	</g>
	<g id="XMLID_1634_">
		<path fill="#8A9077" d="M396.993,565.081c-50.335,19.291-77.36,33.002-86.521,37.927c-5.762,3.098-1.161,8.879,3.781,26.765
			c0.723,2.616,3.303,4.279,5.98,3.859c161.836-25.411,169.69-38.554,155.177-70.551c-9.98-22.003-93.9-161.067-117.357-169.574
			c-8.501-3.083-9.88,67.545-4.386,96.732C358.771,517.354,409.83,560.161,396.993,565.081z"/>
		<path fill="#787160" d="M319.398,634.372c-2.665,0.001-5.065-1.775-5.796-4.418c-1.387-5.021-2.758-9.118-3.86-12.409
			c-2.904-8.678-4.23-12.638,0.411-15.132c9.293-4.997,36.333-18.699,86.599-37.964c0.839-0.321,1.34-0.824,1.533-1.538
			c1.136-4.207-7.588-15.079-16.823-26.592c-12.13-15.12-25.879-32.257-28.457-45.954c-5.144-27.326-4.205-90.896,2.974-97.015
			c0.893-0.762,1.745-0.681,2.305-0.48c24.012,8.709,108.443,149.431,117.741,169.93c4.673,10.302,6.965,18.687,2.964,26.122
			c-8.882,16.505-50.398,28.379-158.65,45.377C320.022,634.349,319.708,634.372,319.398,634.372z M397.234,565.711
			c-50.193,19.237-77.173,32.909-86.443,37.892c-3.481,1.872-2.771,4.541,0.232,13.51c1.107,3.307,2.484,7.423,3.881,12.478
			c0.632,2.29,2.875,3.742,5.225,3.371c107.764-16.92,149.023-28.613,157.671-44.681c3.75-6.97,1.63-14.702-3.005-24.92
			c-11.367-25.061-94.157-160.944-116.973-169.218c-0.224-0.082-0.539-0.128-0.969,0.238c-6.287,5.358-7.914,67.093-2.523,95.733
			c2.516,13.365,16.748,31.102,28.183,45.356c10.275,12.807,18.39,22.923,17.074,27.794
			C399.278,564.409,398.486,565.232,397.234,565.711L397.234,565.711z"/>
	</g>
	<g id="XMLID_844_">
		<g id="XMLID_836_">
			<path fill="#FFBA73" d="M247.987,579.639c-0.208,0-0.413-0.095-0.545-0.276c-12.91-17.604-28.975-39.515-31.442-64.526
				c-1.471-14.911,1.977-29.946,5.31-44.487c3.75-16.356,7.628-33.268,4.306-49.715c-1.819-9.007-5.73-17.502-9.512-25.715
				l-4.198-9.119c-0.156-0.339-0.008-0.741,0.33-0.898c0.34-0.156,0.74-0.008,0.896,0.331l4.198,9.119
				c3.815,8.285,7.759,16.852,9.609,26.012c3.379,16.734-0.532,33.791-4.314,50.287c-3.309,14.435-6.732,29.361-5.282,44.052
				c2.43,24.64,18.375,46.384,31.186,63.857c0.221,0.301,0.156,0.724-0.144,0.946C248.266,579.597,248.126,579.639,247.987,579.639z
				"/>
		</g>
		<g id="XMLID_838_">
			<path fill="#FFBA73" d="M348.139,578.063c-0.423-0.03-0.701-0.354-0.674-0.727c1.51-20.218,3.072-41.125-1.184-61.32
				c-1.912-9.074-5.034-18.046-8.053-26.722c-4.192-12.048-8.527-24.505-9.689-37.426c-2.024-22.488,5.476-44.101,13.881-64.109
				c0.145-0.345,0.544-0.504,0.884-0.361c0.344,0.146,0.505,0.542,0.361,0.886c-8.338,19.846-15.779,41.269-13.781,63.463
				c1.147,12.755,5.454,25.133,9.619,37.102c3.033,8.717,6.169,17.73,8.1,26.888c4.296,20.384,2.726,41.388,1.209,61.701
				C348.785,577.792,348.489,578.063,348.139,578.063z"/>
		</g>
		<g id="XMLID_823_">
			<path fill="#FFFFFF" d="M300.911,495.534c-30.895,0.001-62.269-8.275-90.74-15.784c-22.651-5.973-44.046-11.615-60.911-11.66
				c-5.568,0.009-11.24,0.539-16.791,1.647c-0.363,0.075-0.721-0.164-0.794-0.531c-0.073-0.366,0.164-0.722,0.53-0.795
				c5.638-1.126,11.366-1.656,17.059-1.674c17.038,0.045,38.514,5.709,61.251,11.705c37.04,9.769,79.023,20.846,118.265,13.18
				c12.773-2.493,25.16-6.9,37.139-11.161c16.602-5.906,33.769-12.014,52.35-13.201c0.364-0.037,0.692,0.259,0.717,0.632
				c0.024,0.374-0.258,0.695-0.631,0.719c-18.392,1.175-35.469,7.25-51.984,13.124c-12.026,4.278-24.461,8.703-37.332,11.216
				C319.775,494.758,310.362,495.534,300.911,495.534z"/>
		</g>
		<g id="XMLID_839_">
			<path fill="#FFBA73" d="M78.121,602.951c-0.146,0-0.293-0.047-0.417-0.145c-0.293-0.23-0.343-0.655-0.113-0.95
				c8.135-10.355,17.608-19.949,26.769-29.227c15.312-15.507,31.146-31.541,40.773-51.311c5.863-12.044,9.313-25.297,12.649-38.115
				c2.963-11.385,6.027-23.159,10.78-34.119c3.239-7.47,7.309-14.665,11.245-21.622c3.349-5.919,6.811-12.041,9.735-18.288
				c2.848-6.083,4.967-11.997,6.299-17.577c0.087-0.363,0.454-0.585,0.814-0.501c0.363,0.087,0.586,0.452,0.5,0.815
				c-1.354,5.67-3.504,11.671-6.39,17.836c-2.947,6.294-6.422,12.44-9.783,18.381c-3.919,6.926-7.97,14.09-11.181,21.495
				c-4.711,10.865-7.762,22.586-10.712,33.922c-3.352,12.881-6.819,26.201-12.742,38.364c-9.724,19.972-25.637,36.086-41.026,51.671
				c-9.135,9.252-18.581,18.816-26.668,29.113C78.52,602.863,78.321,602.951,78.121,602.951z"/>
		</g>
		<g id="XMLID_842_">
			<path fill="#FFBA73" d="M452.87,606.305c-0.174,0-0.347-0.066-0.479-0.2c-6.322-6.367-11.484-15.178-14.926-25.478
				c-2.762-8.267-4.447-16.956-6.076-25.358c-1.294-6.671-2.632-13.569-4.499-20.197c-5.051-17.924-14.228-35.193-27.279-51.327
				c-1.737-2.149-3.563-4.298-5.328-6.378c-4.65-5.477-9.458-11.14-13.218-17.424c-6.393-10.68-9.693-23.052-12.306-34.832
				c-2.014-9.083-3.759-18.345-5.185-27.531c-0.057-0.369,0.195-0.715,0.564-0.772c0.372-0.054,0.714,0.196,0.771,0.565
				c1.421,9.158,3.16,18.391,5.169,27.446c2.588,11.668,5.851,23.916,12.145,34.431c3.703,6.188,8.474,11.807,13.088,17.243
				c1.77,2.085,3.601,4.24,5.349,6.403c13.166,16.277,22.428,33.709,27.529,51.811c1.883,6.682,3.226,13.608,4.525,20.307
				c1.621,8.36,3.297,17.002,6.031,25.185c3.376,10.105,8.426,18.734,14.602,24.955c0.263,0.264,0.262,0.694-0.003,0.957
				C453.214,606.239,453.042,606.305,452.87,606.305z"/>
		</g>
		<g id="XMLID_824_">
			<path fill="#FFFFFF" d="M291.588,550.788c-15.83,0-32.87-1.584-51.443-5.405c-14.959-3.08-29.923-7.593-44.393-11.96
				c-29.755-8.977-60.526-18.265-92.625-15.417c-0.361,0.025-0.699-0.243-0.732-0.614c-0.033-0.372,0.241-0.7,0.614-0.733
				c32.364-2.861,63.256,6.456,93.133,15.469c14.442,4.358,29.376,8.863,44.275,11.928c67.313,13.855,114.586-1.863,156.292-15.729
				c17.401-5.784,33.836-11.248,50.908-14.51c0.365-0.071,0.719,0.17,0.79,0.538c0.07,0.367-0.171,0.721-0.537,0.792
				c-16.984,3.245-33.378,8.695-50.735,14.465C366.758,539.709,333.431,550.785,291.588,550.788z"/>
		</g>
		<g id="XMLID_822_">
			<path fill="#FFFFFF" d="M322.921,451.58c-24.042,0-47.768-6.518-70.801-12.844c-30.338-8.335-61.709-16.952-93.372-10.368
				c-0.368,0.082-0.723-0.158-0.799-0.525c-0.076-0.366,0.159-0.724,0.524-0.8c31.98-6.65,63.512,2.012,94.003,10.387
				c25.777,7.081,52.423,14.404,79.303,12.486c16.643-1.187,33.027-5.945,48.873-10.545c5.03-1.461,10.233-2.971,15.369-4.347
				c0.355-0.088,0.73,0.119,0.826,0.48c0.096,0.361-0.117,0.732-0.478,0.828c-5.123,1.371-10.318,2.879-15.342,4.338
				c-15.913,4.62-32.367,9.399-49.152,10.596C328.888,451.48,325.9,451.58,322.921,451.58z"/>
		</g>
		<g id="XMLID_837_">
			<path fill="#FFBA73" d="M300.962,607.561c-0.061,0-0.124-0.008-0.186-0.026c-0.359-0.102-0.566-0.476-0.464-0.835
				c5.658-19.88,5.177-41.625-1.353-61.233c-2.578-7.741-6.124-15.3-9.554-22.611c-4.724-10.072-9.609-20.486-12.045-31.545
				c-3.789-17.203-1.563-35.331,0.59-52.861c1.751-14.258,3.561-29.002,2.017-42.877c-0.041-0.371,0.225-0.705,0.597-0.747
				c0.363-0.033,0.704,0.226,0.746,0.598c1.562,14.033-0.259,28.856-2.019,43.191c-2.138,17.417-4.35,35.427-0.611,52.406
				c2.403,10.911,7.255,21.257,11.949,31.26c3.446,7.346,7.009,14.942,9.611,22.759c6.616,19.863,7.103,41.893,1.372,62.031
				C301.526,607.367,301.255,607.561,300.962,607.561z"/>
		</g>
		<g id="XMLID_821_">
			<path fill="#FFFFFF" d="M265.664,414.519c-17.586,0-35.27-3.873-52.541-7.655c-10.322-2.261-20.996-4.598-31.522-6.089
				c-0.369-0.052-0.627-0.394-0.575-0.764c0.052-0.371,0.401-0.627,0.763-0.576c10.577,1.498,21.275,3.842,31.622,6.108
				c24.293,5.32,49.413,10.821,73.761,5.372c7.839-1.753,14.88-4.421,22.334-7.244c11.365-4.305,24.247-9.184,43.877-12.497
				c0.367-0.061,0.716,0.186,0.778,0.555c0.062,0.369-0.186,0.717-0.554,0.779c-19.5,3.291-32.316,8.145-43.623,12.428
				c-7.501,2.842-14.586,5.526-22.519,7.3C280.242,413.852,272.96,414.519,265.664,414.519z"/>
		</g>
		<g id="XMLID_834_">
			<path fill="#FFFFFF" d="M67.55,580.107c-0.218,0-0.431-0.105-0.562-0.3c-0.208-0.31-0.125-0.73,0.185-0.938
				c22.091-14.823,48.212-13.987,67.284-13.378c4.275,0.137,8.312,0.266,11.712,0.182c0.37,0.036,0.682,0.287,0.691,0.659
				c0.009,0.374-0.286,0.684-0.659,0.693c-3.439,0.085-7.496-0.045-11.788-0.182c-18.892-0.606-44.761-1.431-66.49,13.148
				C67.809,580.069,67.679,580.107,67.55,580.107z"/>
		</g>
		<g id="XMLID_832_">
			<path fill="#FFFFFF" d="M136.743,622.172c-0.106,0-0.213-0.025-0.314-0.078c-0.33-0.173-0.457-0.583-0.283-0.913
				c10.154-19.35,27.125-33.616,47.786-40.172c0.357-0.11,0.735,0.084,0.847,0.44c0.113,0.357-0.084,0.737-0.44,0.85
				c-20.319,6.448-37.011,20.48-46.999,39.511C137.221,622.041,136.986,622.172,136.743,622.172z"/>
		</g>
		<g id="XMLID_828_">
			<path fill="#FFFFFF" d="M480.38,580.901c-0.026,0-0.054-0.001-0.081-0.005c-16.728-1.994-31.732-8.46-46.243-14.715
				c-13.455-5.799-27.368-11.796-42.324-13.967c-0.369-0.054-0.625-0.398-0.571-0.766c0.053-0.37,0.394-0.624,0.765-0.573
				c15.132,2.197,29.128,8.23,42.664,14.063c14.422,6.217,29.335,12.645,45.869,14.616c0.371,0.044,0.635,0.381,0.591,0.75
				C481.01,580.648,480.718,580.901,480.38,580.901z"/>
		</g>
		<g id="XMLID_845_">
			<path fill="#FFBA73" d="M289.839,623.851c-0.108,0-0.217-0.025-0.318-0.081c-0.328-0.176-0.452-0.587-0.276-0.916
				c4.778-8.93,26.527-12.872,54.062-17.862c22.893-4.147,48.841-8.85,69.815-17.521c5.521-2.283,11.018-4.932,16.336-7.494
				c9.77-4.708,19.874-9.577,30.548-12.379c2.961-0.778,6.193-1.415,9.614-2.09c2.106-0.415,4.265-0.84,6.435-1.315
				c0.361-0.083,0.724,0.151,0.803,0.517c0.08,0.365-0.151,0.725-0.516,0.805c-2.18,0.477-4.347,0.904-6.463,1.321
				c-3.4,0.671-6.612,1.304-9.531,2.071c-10.549,2.771-20.594,7.61-30.307,12.29c-5.334,2.57-10.849,5.228-16.405,7.525
				c-21.107,8.727-47.131,13.442-70.091,17.603c-26.101,4.73-48.642,8.815-53.111,17.17
				C290.314,623.722,290.08,623.851,289.839,623.851z"/>
		</g>
		<g id="XMLID_829_">
			<path fill="#FFFFFF" d="M413.442,617.37c-0.102,0-0.205-0.022-0.303-0.073c-13.05-6.568-23.114-17.451-31.992-27.053
				c-7.758-8.39-15.085-16.315-23.323-20.424c-0.334-0.167-0.47-0.572-0.304-0.906c0.167-0.334,0.574-0.473,0.905-0.304
				c8.46,4.219,15.868,12.231,23.713,20.715c9.23,9.982,18.776,20.305,31.607,26.763c0.333,0.168,0.468,0.575,0.3,0.909
				C413.928,617.234,413.689,617.37,413.442,617.37z"/>
		</g>
		<g id="XMLID_846_">
			<path fill="#FFBA73" d="M254.055,622.077c-0.036,0-0.072-0.003-0.108-0.008c-12.718-2.049-24.081-8.794-35.071-15.316
				c-10.792-6.406-21.952-13.029-34.298-15.102c-6.254-1.05-12.749-0.912-19.026-0.771c-2.846,0.061-5.792,0.121-8.682,0.079
				c-35.791-0.575-55.568-14.892-71.459-26.396c-2.966-2.147-5.766-4.175-8.477-5.96c-0.311-0.206-0.398-0.625-0.193-0.937
				c0.205-0.312,0.623-0.398,0.935-0.194c2.735,1.802,5.547,3.838,8.525,5.994c15.737,11.393,35.323,25.572,70.689,26.14
				c2.872,0.043,5.799-0.017,8.632-0.079c6.342-0.14,12.899-0.281,19.279,0.79c12.595,2.115,23.865,8.804,34.764,15.273
				c10.881,6.457,22.133,13.135,34.598,15.144c0.368,0.058,0.618,0.406,0.559,0.775C254.668,621.84,254.381,622.077,254.055,622.077
				z"/>
		</g>
	</g>
	<g id="XMLID_1640_">
		<g id="XMLID_1589_">
			<path fill="#787160" d="M420.947,567.562c-5.448,0-10.879-1.447-15.604-4.242c-0.321-0.19-0.427-0.605-0.238-0.926
				c0.191-0.322,0.604-0.427,0.925-0.239c6.608,3.911,14.661,5.062,22.095,3.156c0.359-0.091,0.73,0.127,0.821,0.488
				c0.092,0.362-0.125,0.731-0.487,0.823C425.998,567.252,423.47,567.562,420.947,567.562z"/>
		</g>
		<g id="XMLID_1590_">
			<path fill="#787160" d="M139.125,565.257c-7.86,0-15.458-4.403-19.374-11.231c-0.186-0.324-0.074-0.737,0.249-0.923
				c0.325-0.185,0.736-0.074,0.922,0.25c3.678,6.416,10.818,10.552,18.202,10.552c0.025,0,0.057,0.007,0.071,0
				c0.372,0,0.674,0.301,0.676,0.674C139.871,564.975,139.511,565.254,139.125,565.257z"/>
		</g>
		<g id="XMLID_1593_">
			<path fill="#787160" d="M270.819,583.526c-0.328,0-0.616-0.239-0.667-0.575c-0.057-0.368,0.197-0.713,0.565-0.77
				c36.31-5.553,55.39-43.762,68.015-69.046c0.168-0.333,0.572-0.471,0.906-0.302c0.333,0.167,0.469,0.573,0.302,0.908
				c-12.75,25.532-32.018,64.118-69.019,69.777C270.887,583.523,270.853,583.526,270.819,583.526z"/>
		</g>
		<g id="XMLID_1637_">
			<path fill="#787160" d="M273.847,407.199c-18.132,0-37.333-9.959-41.399-21.597c-0.123-0.353,0.063-0.738,0.415-0.862
				c0.356-0.122,0.738,0.063,0.861,0.415c3.958,11.326,23.095,21.058,40.946,20.684c0.381,0.025,0.681,0.291,0.687,0.665
				c0.007,0.374-0.291,0.682-0.664,0.688C274.411,407.198,274.128,407.199,273.847,407.199z"/>
		</g>
		<g id="XMLID_1638_">
			<path fill="#787160" d="M186.102,530.794c-0.172,0-0.342-0.065-0.474-0.194c-0.265-0.263-0.268-0.691-0.007-0.957
				c8.443-8.587,13.825-19.913,15.156-31.89c0.042-0.37,0.382-0.629,0.746-0.597c0.371,0.041,0.638,0.377,0.597,0.748
				c-1.365,12.277-6.883,23.886-15.536,32.688C186.45,530.727,186.276,530.794,186.102,530.794z"/>
		</g>
	</g>
	<g id="XMLID_103_">
		<g id="XMLID_24_">
			<path fill="#858789" d="M373.417,669.341H184.142c-10.169,0-18.413-8.258-18.413-18.446V514.804
				c0-10.188,8.244-18.446,18.413-18.446h189.275c10.169,0,18.413,8.258,18.413,18.446v136.091
				C391.83,661.082,383.586,669.341,373.417,669.341z"/>
			<path fill="#D2D4D5" d="M373.417,670.017H184.142c-10.526,0-19.089-8.579-19.089-19.123v-136.09
				c0-10.544,8.563-19.123,19.089-19.123h189.275c10.525,0,19.088,8.579,19.088,19.123v136.09
				C392.505,661.439,383.942,670.017,373.417,670.017z M184.142,497.035c-9.781,0-17.738,7.971-17.738,17.77v136.09
				c0,9.799,7.957,17.77,17.738,17.77h189.275c9.781,0,17.738-7.971,17.738-17.77v-136.09c0-9.798-7.957-17.77-17.738-17.77H184.142
				z"/>
		</g>
		<g id="XMLID_100_">
			<ellipse fill="#D2D4D5" cx="278.779" cy="582.849" rx="15.68" ry="15.708"/>
			<path fill="#858789" d="M278.779,599.235c-9.018,0-16.355-7.35-16.355-16.385c0-9.035,7.337-16.385,16.355-16.385
				c9.019,0,16.356,7.35,16.356,16.385C295.135,591.884,287.798,599.235,278.779,599.235z M278.779,567.817
				c-8.273,0-15.005,6.744-15.005,15.032c0,8.289,6.731,15.032,15.005,15.032c8.274,0,15.005-6.744,15.005-15.032
				C293.784,574.561,287.053,567.817,278.779,567.817z"/>
		</g>
	</g>
	<g id="XMLID_827_">
		<polygon fill="#FFFFFF" points="222.653,560.257 221.431,559.681 221.55,559.422 222.782,559.977 		"/>
	</g>
</g>
<g>
	<path display="none" fill="#FFFFFF" d="M669.992,349.941c9.004,8.773,17.349,18.222,24.944,28.24
		c4.02,5.303,8.256,11.086,14.586,13.142c1.372,0.445,2.853,0.696,4.256,0.365c2.09-0.494,3.726-2.252,4.492-4.258
		c0.766-2.006,0.764-4.23,0.463-6.356c-0.232-1.639-0.65-3.284-1.535-4.683c-0.823-1.3-2.009-2.324-3.19-3.31
		c-8.219-6.859-17.214-12.995-23.88-21.574c1.201-0.937,2.413-1.885,3.366-3.072c0.953-1.188,1.637-2.655,1.607-4.178
		c-0.046-2.317-1.672-4.261-3.085-6.164c16.029-6.813,32.895-11.654,49.989-14.779c-4.218-7.126-7.729-14.643-11.233-22.147
		c-4.754-10.182-9.509-20.364-14.558-29.974c-10.22,11.591-22.939,20.651-35.535,29.603c-8.654,6.15-17.334,12.316-26.668,17.373
		c-4.979,2.697-10.573,5.542-12.565,10.843c-1.258,3.348-0.785,7.151,0.559,10.465c1.345,3.313,3.498,6.226,5.665,9.071
		c1.779,2.335,3.915,4.843,6.99,5.403C660.087,353.788,665.469,352.297,669.992,349.941z"/>
</g>
<g>
	<g>
		<path fill="#FFFFFF" d="M639.7,424.304c2.834,7.619,6.355,14.982,10.507,21.971c2.291-0.531,4.005-2.557,4.779-4.777
			c0.774-2.22,0.758-4.63,0.664-6.979c-0.039-0.968-0.093-1.953-0.426-2.862c-0.296-0.809-0.801-1.523-1.315-2.214
			c-1.262-1.697-2.652-3.355-4.451-4.468C646.55,423.176,642.684,423.052,639.7,424.304z"/>
	</g>
	<g>
		<path fill="#ACD4F7" d="M644.176,465.117c-7.543-16.12-15.085-32.239-22.653-48.62c3.422-3.608,6.039-8.028,7.592-12.819
			c0,0,30.307,62.002,30.313,61.733C654.484,464.025,649.231,463.825,644.176,465.117z"/>
	</g>
	<g>
		<path d="M591.205,482.012c-0.278,0-0.546-0.15-0.686-0.41c-5.035-9.387-9.526-19.208-13.349-29.191
			c-0.127-0.33-0.015-0.703,0.272-0.909c3.096-2.226,6.325-4.473,9.448-6.647c18.015-12.538,36.643-25.504,41.372-42.211
			c0.088-0.31,0.357-0.534,0.678-0.563c0.316-0.029,0.626,0.143,0.768,0.432l30.735,62.732c0.189,0.386,0.03,0.851-0.356,1.04
			c-0.154,0.075-0.318,0.094-0.476,0.068c-0.195,0.147-0.456,0.198-0.706,0.117c-18.912-6.121-66.899,15.256-67.382,15.473
			C591.419,481.99,591.312,482.012,591.205,482.012z M578.836,452.415c3.666,9.504,7.94,18.856,12.713,27.816
			c6.033-2.656,47.953-20.611,66.902-15.515l-29.286-59.773c-5.668,16.327-23.816,28.958-41.388,41.188
			C584.823,448.188,581.774,450.31,578.836,452.415z"/>
	</g>
	<g>
		<path d="M643.809,464.601c-0.291,0-0.57-0.164-0.703-0.444l-21.777-45.952c-0.184-0.388-0.018-0.852,0.37-1.036
			c0.39-0.184,0.852-0.018,1.036,0.37l21.777,45.952c0.184,0.388,0.018,0.852-0.369,1.036
			C644.034,464.577,643.92,464.601,643.809,464.601z"/>
	</g>
	<g>
		<path d="M650.951,447.26c-0.238,0-0.473-0.109-0.626-0.315c-0.255-0.346-0.182-0.832,0.163-1.087
			c2.474-1.828,4.206-4.779,4.634-7.895c0.429-3.118-0.441-6.448-2.328-8.908c-0.918-1.196-2.078-2.229-3.448-3.07
			c-2.333-1.432-5.82-2.373-8.611-0.717c-0.369,0.219-0.846,0.098-1.065-0.272c-0.219-0.369-0.098-0.846,0.272-1.065
			c3.384-2.009,7.497-0.941,10.218,0.729c1.533,0.94,2.834,2.101,3.869,3.448c2.134,2.782,3.118,6.545,2.635,10.066
			c-0.485,3.523-2.448,6.862-5.251,8.934C651.273,447.21,651.111,447.26,650.951,447.26z"/>
	</g>
	<g>
		<path d="M568.479,492.636c-1.093,0-2.18-0.178-3.247-0.592c-3.148-1.223-5.159-4.127-7.108-7.248
			c-1.577-2.525-3.363-5.387-4.235-8.626c-0.982-3.647-0.552-7.205,1.178-9.763c1.386-2.051,3.535-3.373,5.261-4.435
			c5.559-3.42,11.091-6.782,17.647-10.314c0.378-0.203,0.85-0.063,1.053,0.315c0.204,0.378,0.062,0.85-0.315,1.053
			c-6.52,3.513-12.032,6.862-17.57,10.27c-1.599,0.984-3.59,2.208-4.788,3.982c-1.478,2.184-1.829,5.277-0.965,8.488
			c0.812,3.016,2.534,5.774,4.053,8.206c1.805,2.89,3.649,5.572,6.352,6.622c3.674,1.427,7.747-0.488,11.606-2.573
			c2.424-1.31,4.633-2.551,6.768-3.751c2.144-1.204,4.361-2.449,6.8-3.767c0.377-0.205,0.849-0.064,1.053,0.314
			c0.204,0.378,0.064,0.849-0.314,1.053c-2.428,1.312-4.639,2.555-6.777,3.756c-2.141,1.203-4.355,2.446-6.791,3.762
			C575.139,491.011,571.783,492.636,568.479,492.636z"/>
	</g>
	<g>
		<path d="M561.377,471.713c-0.264,0-0.521-0.134-0.667-0.377c-0.221-0.368-0.103-0.845,0.265-1.067
			c4.849-2.918,9.892-5.614,14.99-8.011c0.39-0.182,0.852-0.016,1.035,0.373c0.183,0.389,0.016,0.852-0.373,1.035
			c-5.05,2.375-10.047,5.045-14.85,7.936C561.651,471.677,561.513,471.713,561.377,471.713z"/>
	</g>
	<g>
		<path d="M564.739,477.864c-0.282,0-0.555-0.154-0.693-0.424c-0.195-0.382-0.044-0.85,0.339-1.046
			c5.002-2.558,10.117-5.047,15.204-7.398c0.388-0.181,0.851-0.011,1.032,0.38c0.18,0.39,0.01,0.851-0.38,1.032
			c-5.068,2.342-10.164,4.823-15.148,7.372C564.979,477.836,564.858,477.864,564.739,477.864z"/>
	</g>
	<g>
		<path d="M568.086,484.566c-0.269,0-0.53-0.14-0.674-0.389c-0.214-0.372-0.086-0.847,0.286-1.062
			c4.91-2.83,10.028-5.405,15.21-7.653c0.394-0.171,0.851,0.01,1.022,0.404c0.171,0.394-0.01,0.851-0.404,1.022
			c-5.128,2.225-10.193,4.773-15.052,7.574C568.351,484.533,568.218,484.566,568.086,484.566z"/>
	</g>
	<g>
		<path d="M654.499,421.178c-0.191,0-0.383-0.07-0.532-0.211c-0.313-0.294-0.328-0.786-0.034-1.099
			c4.447-4.73,7.31-10.942,8.064-17.491c0.049-0.427,0.437-0.733,0.861-0.683c0.426,0.049,0.732,0.435,0.683,0.861
			c-0.792,6.879-3.802,13.405-8.476,18.377C654.912,421.095,654.706,421.178,654.499,421.178z"/>
	</g>
	<g>
		<path d="M659.71,427.295c-0.237,0-0.472-0.108-0.624-0.313c-0.257-0.344-0.185-0.832,0.159-1.088
			c3.587-2.67,7.453-4.966,11.491-6.825c0.389-0.18,0.851-0.01,1.031,0.381c0.18,0.39,0.009,0.852-0.381,1.031
			c-3.94,1.814-7.713,4.055-11.213,6.66C660.035,427.245,659.872,427.295,659.71,427.295z"/>
	</g>
	<g>
		<path d="M681.065,437.063c-0.099,0-0.2-0.019-0.298-0.059c-5.63-2.339-11.799-3.214-17.835-2.536
			c-0.434,0.05-0.812-0.259-0.859-0.685c-0.048-0.427,0.259-0.811,0.685-0.859c6.299-0.71,12.733,0.206,18.605,2.644
			c0.397,0.165,0.585,0.62,0.42,1.016C681.659,436.882,681.37,437.063,681.065,437.063z"/>
	</g>
	<g>
		<path d="M635.931,461.93c-0.088,0-0.173-0.045-0.222-0.125l-6.196-10.211c-0.074-0.122-0.035-0.282,0.087-0.356
			c0.123-0.073,0.281-0.035,0.356,0.087l6.196,10.211c0.074,0.122,0.035,0.282-0.087,0.356
			C636.024,461.918,635.977,461.93,635.931,461.93z"/>
	</g>
	<g>
		<path d="M631.171,463.553c-0.086,0-0.172-0.044-0.221-0.123l-3.149-5.099c-0.075-0.122-0.037-0.281,0.085-0.357
			c0.121-0.073,0.281-0.038,0.357,0.084l3.149,5.1c0.075,0.122,0.037,0.281-0.085,0.357
			C631.264,463.541,631.217,463.553,631.171,463.553z"/>
	</g>
	<g>
		<path d="M625.885,465.882c-0.086,0-0.171-0.043-0.22-0.122l-2.389-3.821c-0.076-0.121-0.039-0.281,0.083-0.357
			c0.12-0.075,0.281-0.039,0.357,0.082l2.388,3.821c0.076,0.121,0.039,0.281-0.082,0.357
			C625.98,465.869,625.932,465.882,625.885,465.882z"/>
	</g>
	<g>
		<path d="M619.988,467.477c-0.088,0-0.175-0.046-0.223-0.127l-1.745-2.948c-0.073-0.123-0.032-0.282,0.091-0.355
			c0.122-0.073,0.282-0.033,0.355,0.091l1.746,2.948c0.073,0.123,0.032,0.282-0.091,0.355
			C620.079,467.466,620.033,467.477,619.988,467.477z"/>
	</g>
	<g opacity="0.1294">
		<path d="M656.148,435.593c-0.289-0.889-1.536-1.13-2.181-0.476c-0.386,0.362-0.401,0.92-0.594,1.386
			c-0.491,1.677-1.722,3.614-2.713,4.609c-1.128,1.244-0.882,0.542-1.898,1.72c-1.044,1.765,1.268,3.603,2.747,2.183
			c2.635-2.035,3.198-4,4.247-6.426c0.238-0.696,0.42-1.422,0.454-2.159C656.258,436.145,656.291,435.855,656.148,435.593z"/>
	</g>
</g>
</svg>
