<?xml version="1.0" encoding="utf-8"?>
<!-- Generator: Adobe Illustrator 26.0.0, SVG Export Plug-In . SVG Version: 6.00 Build 0)  -->
<svg version="1.1" id="Layer_1" xmlns="http://www.w3.org/2000/svg" xmlns:xlink="http://www.w3.org/1999/xlink" x="0px" y="0px"
	 viewBox="0 0 1200 1200" style="enable-background:new 0 0 1200 1200;" xml:space="preserve">
<style type="text/css">
	.st0{fill:url(#SVGID_1_);}
	.st1{fill:url(#SVGID_00000135685525415822049030000015638522907686791324_);}
	.st2{fill:url(#SVGID_00000174584251944537409100000003551018583692269992_);}
	.st3{opacity:0.5;fill:url(#SVGID_00000133513816363783200890000004056550319748003466_);enable-background:new    ;}
	.st4{fill:url(#SVGID_00000090277886266228457630000003451923456072748700_);}
</style>
<g>
	<g id="Graphic_Elements">
		
			<linearGradient id="SVGID_1_" gradientUnits="userSpaceOnUse" x1="407.9584" y1="669.2711" x2="773.7368" y2="669.2711" gradientTransform="matrix(1 0 0 -1 0 1199)">
			<stop  offset="0" style="stop-color:#80EDDB"/>
			<stop  offset="1" style="stop-color:#538498"/>
		</linearGradient>
		<path class="st0" d="M562,712.9c28.9,54.9,96.9,76,151.8,47.1c1.8-1,3.6-2,5.4-3c50-29.8,68.9-94.7,42.9-146.8
			c-12.6-25.4-34.4-45-60.9-54.9c-25.9-9.7-47-29.3-59.9-53.8c-12.8-24.3-16.7-52.3-10.9-79.1c5.9-27,1.6-55.3-12.2-79.3
			c-20.4-35.9-58.9-56.6-98.3-56.6c-16,0-31.8,3.4-46.3,10.1c-56.4,25.8-81.2,92.5-55.4,148.9c11.7,25.6,32.5,45.8,58.4,56.7
			c25.5,10.8,47.1,29.1,60.1,53.6l3.4,6.4c12.6,23.9,15.7,51.4,10.8,78C546.3,665,550.2,690.6,562,712.9z"/>
		
			<linearGradient id="SVGID_00000065041685806426387970000017701015065408070826_" gradientUnits="userSpaceOnUse" x1="510.5901" y1="669.2972" x2="773.7368" y2="669.2972" gradientTransform="matrix(1 0 0 -1 0 1199)">
			<stop  offset="0" style="stop-color:#80EDDB"/>
			<stop  offset="1" style="stop-color:#538498"/>
		</linearGradient>
		<path style="fill:url(#SVGID_00000065041685806426387970000017701015065408070826_);" d="M701.1,555.3
			c-25.9-9.7-47-29.3-59.9-53.8c-12.8-24.3-16.7-52.3-10.9-79.1c5.9-27,1.6-55.3-12.2-79.3c-20.4-35.9-58.9-56.6-98.3-56.6
			c-3.1,0-6.2,0.2-9.2,0.4c12.8,1.1,25.2,4.3,36.9,9.7c56.4,25.8,81.2,92.5,55.4,148.9c-11.7,25.6-32.5,45.8-58.4,56.7
			c-12.3,5.2-23.8,12.3-33.9,21c10.7,9.1,19.5,20.2,26.1,32.6l3.4,6.4c12.6,23.9,15.7,51.4,10.8,78
			c-11.2,61.1,29.3,119.6,90.3,130.8c26.8,4.9,54.5-0.1,77.9-14.1c50-29.8,68.9-94.7,42.9-146.8
			C749.4,584.9,727.7,565.2,701.1,555.3z"/>
		
			<linearGradient id="SVGID_00000054966721646921215830000007080812902088692393_" gradientUnits="userSpaceOnUse" x1="408.0184" y1="793.9183" x2="613.0889" y2="793.9183" gradientTransform="matrix(1 0 0 -1 0 1199)">
			<stop  offset="0" style="stop-color:#80EDDB"/>
			<stop  offset="0.14" style="stop-color:#7DE8DA"/>
			<stop  offset="0.3" style="stop-color:#74DAD5"/>
			<stop  offset="0.47" style="stop-color:#66C2CE"/>
			<stop  offset="0.66" style="stop-color:#51A1C4"/>
			<stop  offset="0.84" style="stop-color:#3877B8"/>
			<stop  offset="1" style="stop-color:#1F4EAC"/>
		</linearGradient>
		<path style="fill:url(#SVGID_00000054966721646921215830000007080812902088692393_);" d="M600.1,451.2c29-54.9,7.9-123-47-151.9
			c-1.8-1-3.7-1.9-5.5-2.7c-11.6-5.4-24.1-8.6-36.9-9.7c-12.8,1-25.3,4.3-37,9.7c-56.4,25.8-81.2,92.5-55.4,148.9
			c11.7,25.6,32.5,45.8,58.4,56.7c12.3,5.2,23.8,12.3,33.9,21c10.1-8.7,21.6-15.8,33.9-21C568.4,492.2,588,474.2,600.1,451.2z"/>
		
			<linearGradient id="SVGID_00000175318211839511027530000010768110554255351710_" gradientUnits="userSpaceOnUse" x1="249.3374" y1="535.4866" x2="771.4941" y2="535.4866" gradientTransform="matrix(1 0 0 -1 0 1199)">
			<stop  offset="0" style="stop-color:#80EDDB"/>
			<stop  offset="0.14" style="stop-color:#7DE8DA"/>
			<stop  offset="0.3" style="stop-color:#74DAD5"/>
			<stop  offset="0.47" style="stop-color:#66C2CE"/>
			<stop  offset="0.66" style="stop-color:#51A1C4"/>
			<stop  offset="0.84" style="stop-color:#3877B8"/>
			<stop  offset="1" style="stop-color:#1F4EAC"/>
		</linearGradient>
		<path style="opacity:0.5;fill:url(#SVGID_00000175318211839511027530000010768110554255351710_);enable-background:new    ;" d="
			M662.8,552.5c-28.1-1-55.6,8.7-76.8,27.1c-20.4,17.6-47,26.4-74,26.4l0,0c-27.7,0-54.8-9.5-75.6-27.9c-21.2-18.9-48.7-29-77-28.3
			C301.2,551,252.6,598,249.5,656.1c-3.4,62,44.1,115,106.1,118.4c27.3,1.5,54.3-7,75.8-24c21.2-16.8,47-26.8,74-26.8h7.2
			c27.7,0,54,10.6,75.4,28.2c48,39.3,118.8,32.2,158.1-15.8c17.8-21.7,26.8-49.4,25.2-77.4C768.3,601.1,720.4,554.3,662.8,552.5z"/>
		
			<linearGradient id="SVGID_00000069372778034415432220000005894366495140877210_" gradientUnits="userSpaceOnUse" x1="247.346" y1="590.8688" x2="495.32" y2="590.8688" gradientTransform="matrix(1 0 0 -1 0 1199)">
			<stop  offset="0" style="stop-color:#80EDDB"/>
			<stop  offset="1" style="stop-color:#538498"/>
		</linearGradient>
		<path style="fill:url(#SVGID_00000069372778034415432220000005894366495140877210_);" d="M401.6,461.5c-3.1-5.9-5.8-12-8-18.2
			c0.6,20.3-4.1,40.3-13.7,58.2l0,0c-12.9,24.5-34,44.1-59.9,53.8c-26.5,9.9-48.3,29.5-60.9,54.9c-26,52-7.1,117,42.9,146.8
			c53.2,31.9,122.3,14.6,154.2-38.6c14.1-23.5,19.1-51.2,14.1-78.1c-4.9-26.6-1.8-54,10.8-78l3.4-6.4c3.1-5.9,6.8-11.5,10.9-16.7
			c-8.2-6.9-17.4-12.5-27.2-16.6C439.5,510.5,416,488.9,401.6,461.5z"/>
	</g>
</g>
</svg>
